<?xml version="1.0" standalone="no"?>
<!DOCTYPE svg PUBLIC "-//W3C//DTD SVG 20010904//EN"
 "http://www.w3.org/TR/2001/REC-SVG-20010904/DTD/svg10.dtd">
<svg version="1.0" xmlns="http://www.w3.org/2000/svg"
 width="260.000000pt" height="260.000000pt" viewBox="0 0 260.000000 260.000000"
 preserveAspectRatio="xMidYMid meet">
<metadata>
Created by potrace 1.11, written by Peter Selinger 2001-2013
</metadata>
<g transform="translate(0.000000,260.000000) scale(0.100000,-0.100000)"
fill="#000000" stroke="none">
<path d="M803 2253 c-257 -40 -496 -194 -638 -408 -78 -118 -124 -233 -152
-380 -9 -50 -9 -277 0 -327 4 -21 11 -58 17 -82 55 -248 252 -495 489 -616 48
-24 163 -69 196 -76 113 -25 196 -34 300 -33 273 5 468 77 636 236 47 44 159
193 158 209 0 5 -86 64 -191 130 l-192 122 -40 -60 c-91 -137 -228 -202 -412
-197 -167 4 -281 67 -369 204 -132 205 -109 545 49 717 86 93 181 132 326 131
168 -1 290 -60 390 -189 l24 -32 185 126 c102 69 188 127 190 129 5 4 -30 53
-65 93 -13 14 -33 37 -46 51 -65 74 -197 157 -324 205 -141 53 -368 73 -531
47z"/>
<path d="M2065 2150 c3 -52 7 -153 10 -225 8 -202 15 -351 20 -455 6 -113 18
-404 18 -442 0 -16 5 -29 11 -30 6 -1 100 -2 209 -3 l197 -1 1 66 c1 36 2 81
4 100 1 19 5 114 9 210 4 96 9 220 12 275 9 184 12 259 19 431 l7 170 -261 0
-261 -1 5 -95z"/>
<path d="M2227 852 c-187 -67 -244 -305 -105 -444 180 -179 486 -47 473 205
-9 180 -195 301 -368 239z"/>
</g>
</svg>
