<svg width="200" height="200" viewBox="0 0 200 200" xmlns="http://www.w3.org/2000/svg"><title>converter</title><g id="CSS-Converter" fill="none" fill-rule="evenodd"><g id="Artboard-1" fill="#C61618"><g id="converter" transform="translate(0 16.6)"><path d="M149.787 64.68h-.936c-1.191-.34-2.383-1.19-2.979-2.127L135.66 46.128c-1.532-2.383-.596-5.362 1.531-6.554 2.128-1.191 5.362-.595 6.554 1.532l7.744 12.256 12-8.085c2.128-1.532 5.107-.937 6.554 1.191 1.531 2.128.936 5.106-1.192 6.553l-15.83 10.809c-1.191.51-2.042.85-3.234.85z" id="Shape"/><g id="Shape-+-Shape" transform="translate(125.957 95.32)"><path d="M29.957 21.277c-2.723 0-4.766-2.128-4.766-4.766 0-3.32-3.319-6.298-7.489-6.298s-7.49 2.638-7.49 6.298c0 2.723-2.127 4.766-4.765 4.766-2.724 0-4.766-2.128-4.766-4.766C.68 7.83 8.426.68 17.702.68c9.277 0 17.021 7.149 17.021 15.83a4.758 4.758 0 0 1-4.766 4.766z" id="Shape"/><path d="M29.957 41.872c-2.723 0-4.766-2.127-4.766-4.766V17.957c0-2.723 2.128-4.766 4.766-4.766 2.724 0 4.766 2.128 4.766 4.766v19.15c0 2.723-2.127 4.765-4.766 4.765zM5.362 41.872c-2.724 0-4.766-2.127-4.766-4.766V18.298c0-2.724 2.127-4.766 4.766-4.766 2.723 0 4.766 2.128 4.766 4.766v18.808c.34 2.724-2.043 4.766-4.766 4.766z" id="Shape"/><path d="M24.255 29.957H9.617c-2.723 0-4.766-2.127-4.766-4.766 0-2.723 2.128-4.765 4.766-4.765h14.638c2.724 0 4.766 2.127 4.766 4.765.085 2.639-2.042 4.766-4.766 4.766z" id="Shape"/></g><g id="Shape-+-Shape-+-Shape" transform="translate(40.851 60.426)"><path d="M27.829 9.872H5.36C2.637 9.872.595 7.745.595 5.106.595 2.383 2.722.34 5.36.34H27.83c2.723 0 4.766 2.128 4.766 4.766.085 2.639-2.043 4.766-4.766 4.766z" id="Shape"/><path d="M16.169 25.447c-2.723 0-4.766-2.128-4.766-4.766V7.489c0-2.723 2.128-4.766 4.766-4.766a4.758 4.758 0 0 1 4.766 4.766v13.192c.085 2.638-2.043 4.766-4.766 4.766z" id="Shape"/><path d="M26.977 41.872H6.892c-2.723 0-4.766-2.127-4.766-4.766V22.468c0-2.723 2.128-4.766 4.766-4.766h20.085c2.724 0 4.766 2.128 4.766 4.766a4.758 4.758 0 0 1-4.766 4.766H11.743v5.106h15.234c2.724 0 4.766 2.128 4.766 4.766 0 2.639-2.042 4.766-4.766 4.766z" id="Shape"/></g><path d="M150.979 57.532c-.596 0-.936 0-1.532-.34-2.383-.937-3.915-3.575-2.979-5.958 2.723-7.745 1.787-16.17-2.128-23.66-3.914-7.489-10.468-13.191-18.553-15.574-8.085-2.723-16.766-2.128-24.255 1.787C94.042 17.362 88.34 24 85.957 31.745c-.936 2.383-3.574 3.915-5.957 2.978-2.383-.936-3.915-3.574-2.979-5.957 3.32-10.468 10.809-18.809 20.681-23.66 9.872-4.85 20.936-5.702 31.745-2.127 10.468 3.319 19.149 10.808 24.255 20.34 5.107 9.872 5.958 20.936 2.724 31.15-1.617 1.871-3.66 3.063-5.447 3.063zM5.532 131.66c-1.192 0-2.383-.596-3.32-1.532-1.531-1.532-1.786-3.575-.935-5.362l15.83-33.192c1.19-2.383 4.17-3.319 6.553-2.383 2.383.937 3.319 4.17 2.383 6.554L15.83 116.68l16.766-7.745c2.383-1.191 5.361 0 6.553 2.383 1.191 2.383 0 5.362-2.383 6.298L7.915 131.404c-.851 0-1.787.256-2.383.256z" id="Shape"/><path d="M57.021 123.32c-8.34 0-16.425-2.384-23.319-7.15-2.128-1.532-2.723-4.51-1.191-6.553 1.532-2.128 4.51-2.723 6.553-1.191 5.362 3.574 11.404 5.361 17.617 5.361 17.362 0 31.404-14.042 31.404-31.404 0-17.362-13.702-31.745-31.064-31.745-17.361 0-31.404 14.043-31.404 31.405 0 2.978.34 5.957 1.192 8.936.595 2.723-.596 5.361-3.32 5.957-2.723.596-5.361-.596-5.957-3.319-1.192-3.915-1.787-7.745-1.787-11.66 0-22.723 18.553-41.276 41.276-41.276 22.724 0 41.277 18.553 41.277 41.276 0 22.724-18.553 41.362-41.277 41.362zM194.638 166.383c-.595 0-1.532-.34-2.127-.596l-29.022-13.447c-2.383-1.191-3.574-3.914-2.383-6.297 1.192-2.383 3.915-3.575 6.298-2.383l16.766 7.744-10.213-20.936c-1.191-2.383 0-5.362 2.383-6.553 2.383-1.192 5.362 0 6.554 2.383l15.83 33.191c.936 1.788.595 4.17-.937 5.362-.766.936-1.957 1.532-3.149 1.532z" id="Shape"/><path d="M143.149 158.043c-22.723 0-41.277-18.554-41.277-41.277 0-22.723 18.554-41.277 41.277-41.277 22.723 0 41.277 18.554 41.277 41.277 0 3.915-.596 7.745-1.788 11.66-.595 2.723-3.319 3.914-5.957 3.319-2.724-.596-3.915-3.32-3.32-5.958.937-2.978 1.192-5.957 1.192-8.936 0-17.362-14.042-31.404-31.404-31.404-17.362 0-31.404 14.042-31.404 31.404 0 17.362 14.042 31.404 31.404 31.404 6.298 0 12.596-1.787 17.617-5.361 2.128-1.532 5.106-.937 6.553 1.191 1.532 2.128.936 5.106-1.191 6.553-6.468 5.022-14.554 7.405-22.98 7.405z" id="Shape"/></g></g></g></svg>