<svg width="200" height="200" viewBox="0 0 200 200" xmlns="http://www.w3.org/2000/svg"><title>calculator</title><g id="VTDC" fill="none" fill-rule="evenodd"><g id="Artboard-1" fill="#C61618"><g id="calculator" transform="translate(4.717 1)"><g id="Group"><path d="M45.283.56C20.755.56.519 20.75.519 45.22c0 24.471 20.236 44.66 44.764 44.66 24.528 0 44.764-20.189 44.764-44.66C90.047 20.75 69.811.56 45.283.56zm0 78.92c-19.01 0-34.34-15.295-34.34-34.26 0-18.965 15.33-34.26 34.34-34.26 19.01 0 34.34 15.295 34.34 34.26 0 18.965-15.33 34.26-34.34 34.26zM144.01.56C119.48.56 99.244 20.75 99.244 45.22c0 24.471 20.236 44.66 44.764 44.66 24.529 0 44.765-20.189 44.765-44.66 0-24.471-20.236-44.66-44.765-44.66zm0 78.92c-19.01 0-34.34-15.295-34.34-34.26 0-18.965 15.33-34.26 34.34-34.26 19.009 0 34.34 15.295 34.34 34.26 0 18.965-15.331 34.26-34.34 34.26zM45.283 109.457c-24.528 0-44.764 20.189-44.764 44.66 0 24.47 20.236 44.66 44.764 44.66 24.528 0 44.764-20.19 44.764-44.66 0-24.471-20.236-44.66-44.764-44.66zm0 78.92c-19.01 0-34.34-15.295-34.34-34.26 0-18.965 15.33-34.26 34.34-34.26 19.01 0 34.34 15.295 34.34 34.26 0 18.965-15.33 34.26-34.34 34.26zM144.01 108.845c-24.529 0-44.765 20.189-44.765 44.66 0 24.471 20.236 44.66 44.764 44.66 24.529 0 44.765-20.189 44.765-44.66 0-24.471-20.236-44.66-44.765-44.66zm0 78.92c-19.01 0-34.34-15.295-34.34-34.26 0-18.965 15.33-34.26 34.34-34.26 19.009 0 34.34 15.295 34.34 34.26 0 18.965-15.331 34.26-34.34 34.26z" id="Shape"/><path d="M58.16 40.938h-7.358v-7.342a5.49 5.49 0 0 0-5.519-5.506 5.49 5.49 0 0 0-5.519 5.506v7.342h-7.358a5.49 5.49 0 0 0-5.52 5.506 5.49 5.49 0 0 0 5.52 5.506h7.358v7.341a5.49 5.49 0 0 0 5.519 5.506 5.49 5.49 0 0 0 5.519-5.506V51.95h7.358a5.49 5.49 0 0 0 5.52-5.506 5.49 5.49 0 0 0-5.52-5.506zM156.887 40.938h-25.142a5.49 5.49 0 0 0-5.519 5.506 5.49 5.49 0 0 0 5.52 5.506h25.14a5.49 5.49 0 0 0 5.52-5.506 5.49 5.49 0 0 0-5.52-5.506zM50.189 143.716l-17.783 17.742c-2.453 2.447-2.453 5.506 0 7.953 2.452 2.447 5.519 2.447 7.971 0L58.16 151.67c2.453-2.448 2.453-5.506 0-7.954-2.452-2.447-5.518-2.447-7.971 0z" id="Shape"/><ellipse id="Oval" cx="36.698" cy="145.552" rx="6.132" ry="6.118"/><ellipse id="Oval" cx="53.868" cy="166.964" rx="6.132" ry="6.118"/><path d="M156.887 143.716c-2.453-2.447-5.52-2.447-7.972 0l-4.906 4.895-4.905-4.895c-2.453-2.447-5.52-2.447-7.972 0-2.453 2.448-2.453 5.506 0 7.954l4.906 4.894-4.906 4.894c-2.453 2.447-2.453 5.506 0 7.953s5.519 2.447 7.972 0l4.905-4.894 4.906 4.894c2.453 2.447 5.519 2.447 7.972 0 2.453-2.447 2.453-5.506 0-7.953l-4.906-4.894 4.906-4.894c2.453-2.448 2.453-6.118 0-7.954z" id="Shape"/></g></g></g></g></svg>