<svg width="250" height="250" viewBox="0 0 250 250" xmlns="http://www.w3.org/2000/svg"><title>Untitled 3</title><g id="Page-1" fill="none" fill-rule="evenodd"><g id="red_microscope" transform="translate(56 28)" fill="#C61618"><g id="Page-1"><g id="red_microscope"><g id="Group" transform="translate(0 4.012)"><path d="M95.927 44.732c-8.647 0-15.725 7.078-15.725 15.726s7.078 15.726 15.725 15.726c8.648 0 15.726-7.078 15.726-15.726s-7.078-15.726-15.726-15.726zm0 6.29a9.388 9.388 0 0 1 9.436 9.436 9.388 9.388 0 0 1-9.436 9.436 9.388 9.388 0 0 1-9.435-9.436 9.388 9.388 0 0 1 9.435-9.435z" id="Shape"/><path d="M99.072 60.464a3.145 3.145 0 1 1-6.29 0 3.145 3.145 0 0 1 6.29 0zM109.085 57.473a3.145 3.145 0 0 0-1.695 5.688 53.459 53.459 0 0 1 20.32 54.365 53.45 53.45 0 0 1-41.206 40.862 3.145 3.145 0 1 0 1.29 6.156c22.99-4.84 41.024-22.72 46.06-45.667C138.889 95.93 130 72.146 111.15 58.124a3.145 3.145 0 0 0-2.065-.651zM78.628 156.396a3.145 3.145 0 1 1-6.29 0 3.145 3.145 0 0 1 6.29 0z" id="Shape"/><path d="M102.599 68.272a3.15 3.15 0 0 0-1.856 5.652 40.877 40.877 0 0 1 14.83 40.137 40.864 40.864 0 0 1-29.081 31.378 3.152 3.152 0 1 0 1.708 6.07c17.109-4.787 30.08-18.796 33.552-36.22a47.2 47.2 0 0 0-17.114-46.317 3.15 3.15 0 0 0-2.04-.7z" id="Shape"/><path d="M75.484 140.66c-8.648 0-15.726 7.078-15.726 15.726s7.078 15.725 15.726 15.725 15.726-7.077 15.726-15.725-7.078-15.726-15.726-15.726zm0 6.29a9.388 9.388 0 0 1 9.435 9.436 9.388 9.388 0 0 1-9.435 9.435 9.388 9.388 0 0 1-9.436-9.435 9.388 9.388 0 0 1 9.436-9.436z" id="Shape"/><path d="M27.545 132.92a3.145 3.145 0 0 0-2.715 4.853 59.768 59.768 0 0 0 37.926 26.684 3.15 3.15 0 0 0 1.339-6.155 53.463 53.463 0 0 1-33.933-23.87 3.145 3.145 0 0 0-2.617-1.512zM43.344 132.908a3.145 3.145 0 0 0-2.37 5.332 47.162 47.162 0 0 0 22.617 13.49 3.148 3.148 0 1 0 1.585-6.095 40.896 40.896 0 0 1-19.608-11.695 3.145 3.145 0 0 0-2.224-1.032zM92.745 10.136a3.145 3.145 0 0 0-2.174.921l-44.008 44.02a3.145 3.145 0 1 0 4.448 4.448l41.784-41.796 19.129 19.129-10.357 10.357a3.15 3.15 0 1 0 4.46 4.447l12.568-12.58a3.145 3.145 0 0 0 0-4.448L95.018 11.057a3.145 3.145 0 0 0-2.273-.921zm-7.875 54.99a3.145 3.145 0 0 0-2.162.947L70.14 78.653a3.145 3.145 0 1 0 4.447 4.448l12.568-12.58a3.145 3.145 0 0 0-2.285-5.394z" id="Shape"/><path d="M53.382 58.898a3.145 3.145 0 0 0-2.163.946L30.8 80.275a3.145 3.145 0 0 0 0 4.448l14.141 14.128a3.145 3.145 0 0 0 4.448 0l20.419-20.418a3.145 3.145 0 1 0-4.448-4.448L47.165 92.18 37.472 82.5l18.195-18.207a3.145 3.145 0 0 0-2.285-5.394zM114.762.7a3.145 3.145 0 0 0-2.175.922L96.886 17.335a3.145 3.145 0 1 0 4.447 4.448l13.478-13.49 6.548 6.548-13.49 13.49a3.145 3.145 0 1 0 4.448 4.447l15.713-15.713a3.145 3.145 0 0 0 0-4.447L117.034 1.622A3.145 3.145 0 0 0 114.762.7z" id="Shape"/><path d="M44.032 49.45a3.145 3.145 0 0 0-2.187 5.406l32.95 32.963a3.145 3.145 0 1 0 4.448-4.448L46.293 50.41a3.145 3.145 0 0 0-2.26-.959zM3.145 120.216v18.871h61.33V120.216H3.146zm6.29 6.29h48.75v6.29H9.435v-6.29zM17.298 107.636v6.29H48.75v-6.29zM44.032 164.249a3.145 3.145 0 0 0-2.617 1.4l-9.435 14.154a3.145 3.145 0 0 0 2.617 4.889h81.774a3.145 3.145 0 0 0 2.617-4.89l-9.436-14.153a3.145 3.145 0 0 0-2.617-1.4h-25.16v6.29h23.477l5.246 7.863H40.47l5.246-7.863h23.479v-6.29H44.032z" id="Shape"/></g></g></g></g></g></svg>