<svg width="250" height="250" viewBox="0 0 250 250" xmlns="http://www.w3.org/2000/svg"><title>Untitled 2</title><g id="Page-1" fill="none" fill-rule="evenodd"><g id="red_brain_h" transform="translate(40 31)" fill="#C61618"><g id="Page-1"><g id="red_brain"><g id="Brain"><g id="Artboard-1"><g id="brain" transform="translate(.963)"><g id="Group"><path d="M137.788 136.531c6.206-24.541 39.21-36.39 28.491-86.32C155.842.565 97.167-4.512 66.701 3.104 35.39 11.283 10.284 44.57 18.464 72.497c.564 2.257.282 4.513-.846 6.488-3.95 5.924-14.105 18.9-16.925 26.516-1.129 2.821.564 5.642 3.385 6.489.846.282 6.206 2.256 7.052 2.538 7.334 2.257 5.924 18.336 5.924 33.005 0 15.233 16.36 13.258 21.72 12.13 5.36-1.129 17.49-2.257 17.49 12.412 0 1.974 0 3.385.282 4.795.282 2.821 1.975 5.36 4.796 6.488 10.72 4.232 42.031 10.72 79.549-2.82 2.257-.847 3.103-3.386 2.257-5.36-3.95-7.053-10.155-20.31-5.36-38.647zm-12.13-22.849c-8.462 4.514-14.95-.564-18.336-4.231-1.974.846-3.949 1.41-5.923 1.41-3.386 0-6.77-1.128-9.31-3.385 0 .282-11.565 2.821-13.54-5.077h1.129c7.052-.283 13.822-3.95 20.028-11.284 1.128-1.128.846-3.103-.282-4.231-1.128-1.129-3.103-.847-4.231.282-5.078 5.924-10.438 9.027-15.797 9.309-1.693 0-3.103-.282-4.232-.565-.282 0-.846-.282-1.128-.282-.282 0-.846-.282-1.129-.564-2.82-1.41-4.795-3.103-4.795-3.103s-.282 0-.282-.282c-3.95-3.95-3.95-9.59-3.103-13.258-14.105 1.692-20.593-3.667-23.696-8.745 1.129-.282 2.54-.564 3.668-.846 3.667-1.41 6.77-4.231 8.462-8.463.564-1.41 0-3.103-1.41-3.95-1.41-.563-3.103 0-3.95 1.411-1.128 2.821-2.82 4.514-5.077 5.36-1.975.846-4.231.846-6.206.564-4.514-2.256-7.617-6.77-7.617-12.13 0-7.052 5.36-12.976 12.412-13.54-.846-1.41-1.128-2.82-.846-4.513.564-2.821 2.821-5.36 5.924-5.642h.846c.847 2.82 2.821 6.488 6.488 8.18 1.129.565 1.975.565 3.103.565 2.257 0 4.796-.847 7.335-2.821 1.41-.847 1.692-2.821.564-4.232-.846-1.41-2.821-1.692-4.231-.564-1.41 1.129-3.386 1.975-4.796 1.41-1.693-.564-2.82-3.102-3.385-5.077 1.975-3.667 5.924-5.924 10.437-5.924 2.539 0 4.796.846 6.488 1.975 1.693-4.514 5.924-7.899 11.284-7.899 2.82 0 5.36.847 7.334 2.54C90.115 12.975 93.5 11 97.731 11c3.95 0 7.617 1.975 9.591 5.078 1.41-.846 3.385-1.41 5.078-1.41 4.231 0 8.18 2.82 9.591 6.488 1.41-.847 3.103-1.41 4.796-1.41 4.795 0 8.744 3.949 8.744 8.744v.564c1.129-.564 2.54-.846 3.95-.282 2.256.564 4.23 2.257 4.795 4.796.282 1.41 0 2.82-.282 3.949h.282a7.585 7.585 0 0 1 7.617 7.616c0 1.41-.565 2.821-1.129 3.95-4.795-.847-11.001.564-15.797 7.334-.846 1.41-.564 3.103.846 3.95.565.281 1.129.563 1.693.563.846 0 1.693-.564 2.539-1.128 5.924-8.18 13.54-3.95 14.386-3.385h.282c2.257 3.667 3.386 7.898 3.386 12.412 0 7.334-3.386 14.104-8.463 18.618.564 1.974.564 3.949 0 6.206-1.129 3.949-4.232 7.052-8.18 7.898-2.257.564-4.514.282-6.489-.282-.846 4.514-3.385 9.31-9.309 12.412z" id="Shape"/><path d="M80.524 49.084c-4.796 5.077-6.206 12.976-3.95 19.746.565 1.128 1.693 1.974 2.822 1.974.282 0 .564 0 1.128-.282 1.41-.564 2.257-2.256 1.692-3.667-1.692-4.513-.564-10.155 2.821-13.54 1.129-1.128 1.129-3.103-.282-4.231-1.41-1.41-3.103-1.41-4.231 0zM135.813 38.928c-3.667-6.77-9.873-8.744-15.514-8.744-.565-1.975-1.41-5.078-2.821-7.617-.847-1.41-2.54-1.692-3.95-.846-1.41.846-1.692 2.539-.846 3.95 1.128 1.692 1.693 3.666 1.975 5.359-1.693.564-3.103 1.128-4.232 1.692-1.41.847-1.974 2.54-1.41 3.95.846 1.41 2.539 1.974 3.95 1.41.563-.282 12.411-5.924 17.77 3.667.565.847 1.411 1.41 2.54 1.41.564 0 .846 0 1.41-.281 1.128-.847 1.693-2.54 1.128-3.95zM109.015 70.522c1.41 5.642 5.36 9.027 10.72 9.591h.281c1.41 0 2.821-1.128 2.821-2.82 0-1.693-1.128-3.103-2.82-3.103a4.936 4.936 0 0 1-3.95-1.975c-1.692-1.975-1.974-5.078-1.974-5.924v-1.41c-.283-1.129-1.41-1.975-2.821-1.975-10.156 0-11.848-9.591-12.13-10.155-.282-1.693-1.693-2.54-3.385-2.257-1.693.282-2.54 1.693-2.54 3.385.847 4.796 4.796 13.258 14.952 14.669.564.282.564 1.128.846 1.974zM88.704 20.31c-1.41.565-2.256 2.257-1.974 3.668 1.128 3.385 1.128 6.206-.282 8.18-2.821 4.232-9.591 5.078-9.873 5.078-1.693.282-2.821 1.692-2.54 3.103.283 1.41 1.411 2.539 2.822 2.539h.282c.282 0 9.873-1.129 14.104-7.899 2.257-3.667 2.821-8.18.847-13.258-.283-1.128-1.975-1.975-3.386-1.41zM125.94 101.27c-4.231 1.693-7.616 1.975-10.155.846-3.385-1.692-4.513-5.641-4.795-5.641-.565-1.693-1.975-2.54-3.668-1.975-1.692.564-2.538 1.975-1.974 3.667 0 .282 1.692 6.488 7.616 9.31 1.975.845 3.95 1.41 6.206 1.41 2.821 0 5.642-.565 8.745-1.975 1.41-.564 2.257-2.257 1.41-3.95-.282-1.692-1.974-2.256-3.385-1.692z" id="Shape"/></g></g></g></g></g></g></g></g></svg>