<svg xmlns="http://www.w3.org/2000/svg" data-name="Layer 1" viewBox="0 0 100 125"><title>Artboard 25</title><path fill="#C61618" d="M86.72 47.05L59.06 80.63a11.73 11.73 0 0 0-2.73 7.51V96a3 3 0 0 1-3 3h-6.84a3 3 0 0 1-3-3v-7.9a11.73 11.73 0 0 0-2.71-7.49L13.31 47.09a7.65 7.65 0 0 1-1.09-3.95c0-7.19 9.48-11 20-12.91-.3 1-.57 1.93-.85 3a10.68 10.68 0 0 0-.14 5.55c-6 1.33-9.8 3.1-10.73 4.38 1.7 2.31 12.62 6.24 29.5 6.24s27.81-3.93 29.5-6.24c-1-1.42-5.6-3.46-12.88-4.81A17.12 17.12 0 0 0 69 30.47c10 1.95 18.75 5.77 18.75 12.67a7.65 7.65 0 0 1-1.03 3.91zM51.1 32a6.11 6.11 0 0 1-2.44.49 7.15 7.15 0 0 1-.89-.06 15.91 15.91 0 0 1-5.51-1.65 2.93 2.93 0 0 0-1.35-.42c-1.18 0-1.55 1.16-1.73 1.72-.31 1-.58 2-.88 3.07-.49 1.82-.15 2.58 1.56 3.41a19.66 19.66 0 0 0 5.51 1.59l.67.11v2.73a2.11 2.11 0 0 0 2.19 2.26h2.99A2 2 0 0 0 53.38 43v-.96-1.82c0-.43 0-.56.57-.71a10.87 10.87 0 0 0 5.63-3.61 10 10 0 0 0 2.13-8.24 10.66 10.66 0 0 0-5.39-7.3 44.3 44.3 0 0 0-4.67-2.14L51 18a10.57 10.57 0 0 1-2.62-1.46A1.7 1.7 0 0 1 47.7 15a1.76 1.76 0 0 1 1.14-1.31 4 4 0 0 1 1.42-.28h.72a12.22 12.22 0 0 1 5.37 1.23 3.06 3.06 0 0 0 1.3.35 1.57 1.57 0 0 0 .62-.12 2.23 2.23 0 0 0 1.09-1.51c.27-.82.5-1.66.74-2.49l.28-1a2.11 2.11 0 0 0-1.3-2.71 17.52 17.52 0 0 0-4.36-1.3c-1.09-.17-1.09-.17-1.09-1.27 0-3-.3-3.58-3.28-3.58h-1.51c-1.74.05-2.34.66-2.39 2.41V5.12c0 1 0 1-1 1.35-4.45 1.61-6.83 4.66-7.1 9-.23 3.76 1.48 6.68 5.22 8.92a29.46 29.46 0 0 0 4.23 2c.62.25 1.23.49 1.84.76a8.26 8.26 0 0 1 2 1.14A2 2 0 0 1 51.1 32z"/></svg>