<svg width="200" height="200" viewBox="0 0 200 200" xmlns="http://www.w3.org/2000/svg"><title>Group</title><g id="Cat" fill="none" fill-rule="evenodd"><g id="Artboard-1" fill="#C61618"><g id="Group" transform="matrix(1 0 0 -1 0 193)"><path d="M.745 11.605v23.478c0 5.014 3.341 9.252 7.92 10.616-3.166 10.276-5.78 22.249-6.89 31.505l-.548 6.895-.01.187-.436 8.439c.347 8.55 3.002 16.782 7.27 23.884a45.6 45.6 0 0 0 3.926 5.554l3.417 3.6-3.234 2.316c-10.263 8.783-13.754 22.52-9.89 35.22 4.315 14.173 20.888 25.08 36.128 19.75 6.714-2.34 11.373-6.914 13.844-12.176 2.356-5.006 2.844-10.957.773-16.072-1.202-2.969-3.447-5.994-7.042-7.785-4.527-2.262-10.036-.425-12.297 4.095a9.123 9.123 0 0 0 .442 8.973l1.8 1.995-.276 1.015c-.404.86-1.288 1.972-3.297 2.674-3.831 1.337-10.8-2.117-12.53-7.797-2.22-7.286.364-15.826 10.059-19.236l4.315-1.06 7.125 2.105c7.871 1.705 16.364 1.703 24.922-.477 19.193-4.888 21.21-3.452 23.636 1.837l.065.129c2.97 5.171 8.459 25.448 16.514 23.923.284-.052.549-.185.764-.378 7.238-6.53 7.722-17.064 24.278-16.803 13.987.22 13.678 9.355 21.292 16.277a1.578 1.578 0 0 0 1.596.318c11.059-3.971 14.12-26.15 16.05-34.913l1.268-7.23c.661-7.81-.28-16.487-.28-21.16l-.008-.146c-1.544-16.797-9.78-37.433-23.226-47.614l-3.436-2.359a1.558 1.558 0 0 0-.538-.677l-.085-.059.19-2.464c.052-.578.111-1.181.177-1.82h43.273c6.125 0 11.097-4.966 11.097-11.081V11.605c0-6.116-4.972-11.08-11.097-11.08H11.84C5.716.526.745 5.49.745 11.606zm194.96 0v23.478c0 4.372-3.56 7.927-7.939 7.927h-42.924c.392-2.308 2.006-7.334 2.594-11.346.019-.056.027-.109.036-.16.619-.42.993-.964.993-1.557v-.303c0-.53-.294-1.017-.791-1.417-.04-.902-.181-1.797-.626-2.733a1.74 1.74 0 0 0-.305-.675c-.017-.145-.09-.26-.168-.372 1.137-.43 1.89-1.173 1.89-2.016v-.302c0-1.331-1.871-2.414-4.17-2.414h-9.04c-2.3 0-4.167 1.083-4.167 2.414v.302c0 1.217 1.563 2.227 3.59 2.39a.74.74 0 0 0-.17.129 19.408 19.408 0 0 0-3.064 2.314c-.17.116-.318.248-.452.402a26.708 26.708 0 0 0-2.758 2.901c-.169.166-.31.339-.436.526a33.668 33.668 0 0 0-2.421 3.317c-.15.198-.274.389-.377.59-.316.47-.442.678-.566.888l.006-.017a45.39 45.39 0 0 0-1.623 2.95l-.762 1.66-4.743-1.507-5.114-1.34-.034-.71c-.004-.395.009-.849.055-1.415.05-.855.141-1.944.242-3.15h2.065c2.3 0 4.17-1.083 4.17-2.414v-.303c0-1.33-1.87-2.413-4.17-2.413h-1.663a76.43 76.43 0 0 0 .112-2.384h1.55c2.298 0 4.168-1.083 4.168-2.416v-.3c0-1.333-1.87-2.416-4.169-2.416h-1.722c-.004-.019-.006-.036-.063-.313-.004-.03-.008-.061-.017-.089-.078-.712-.217-1.4-.404-2.047h2.202c2.299 0 4.168-1.08 4.168-2.414v-.302c0-1.331-1.87-2.414-4.168-2.414h-9.038c-2.299 0-4.17 1.083-4.17 2.414l-.003.225a.375.375 0 0 0-.117.113c-1.068.772-2.066 1.766-2.988 2.927a1.2 1.2 0 0 0-.217.292 25.207 25.207 0 0 0-2.48 3.807 2.205 2.205 0 0 0-.22.433 36.308 36.308 0 0 0-1.992 4.39c-.08.172-.143.342-.192.521-.27.683-.41 1.089-.547 1.497l-.002.002a52.365 52.365 0 0 0-1.028 3.435l-.488 2.123-3.53-.197a96.647 96.647 0 0 0-4.805-.038c-2.66.042-5.35.13-8.055.282l-6.587.525-.067-.589a23.322 23.322 0 0 0-.423-2.175l-.013-.087c-2.08-8.688-7.286-6.82-10.45-4.904a2.389 2.389 0 0 0-.382.269.19.19 0 0 0-.075.036l-.013.006a6.14 6.14 0 0 0-1.653-.212h-9.038c-2.299 0-4.17 1.082-4.17 2.413v.303c0 1.33 1.871 2.413 4.17 2.413h6.1c-.66.971-1.279 1.987-1.73 2.9-.138.205-.254.399-.368.592l-.34.597c-.457.746-.531.881-.603 1.015l-.425.78-3.021.846a84.428 84.428 0 0 0-5.876 2.005l1.714-.544-1.684.536-.53.241c-.752.26-.807.28-.86.303l-2.991 1.295a1.565 1.565 0 0 0-1.05.086H31.76l-.072-.275-.077-.303c-.003-.004-.003-.008-.003-.01-.002-.004-.002-.007-.002-.01-.122-.545-.214-1.281-.29-2.219-.297-3.132-.524-8.156-1.385-11.756-.163-.676-.36-1.33-.598-1.948-.11-.36-.253-.71-.609-1.29a1.998 1.998 0 0 0-.259-.489 1.813 1.813 0 0 0-.303-.58c.752-.435 1.22-1.039 1.22-1.7v-.301c0-1.333-1.87-2.416-4.17-2.416h-9.037c-2.3 0-4.17 1.083-4.17 2.416v.3c0 1.333 1.87 2.416 4.17 2.416h2.143a1.142 1.142 0 0 0-.253.304c-.452.398-.913.961-1.38 1.68a1.835 1.835 0 0 0-.327.4h-.181c-2.3 0-4.17 1.082-4.17 2.413v.303c0 .811.7 1.534 1.774 1.972a7.05 7.05 0 0 0-.282.656c-.078.172-.158.346-.234.546a55.545 55.545 0 0 0-1.876 4.602 42.439 42.439 0 0 0-.747 2.035c-.219.568-.3.801-.38 1.039l-.165.49c-.156.46-.314.924-.468 1.395l-.178-.038c-3.215-1.01-5.548-4.019-5.548-7.56V11.606c0-4.373 3.558-7.926 7.937-7.926h175.926c4.38 0 7.94 3.553 7.94 7.926zm-38.903 4.62v19.123a5.37 5.37 0 0 0 5.37 5.363h19.165a5.372 5.372 0 0 0 5.37-5.363V16.225a5.368 5.368 0 0 0-5.37-5.363h-19.164c-2.967 0-5.37 2.401-5.37 5.363zM12 14.548v.302c0 1.333 1.872 2.414 4.17 2.414h9.04c2.3 0 4.167-1.08 4.167-2.414v-.302c0-1.331-1.868-2.414-4.166-2.414h-9.04c-2.3 0-4.171 1.083-4.171 2.414zm29.77 0v.302c0 1.333 1.872 2.414 4.171 2.414h9.038c2.299 0 4.168-1.08 4.168-2.414v-.302c0-1.331-1.87-2.414-4.168-2.414H45.94c-2.299 0-4.17 1.083-4.17 2.414zm29.771 0v.302c0 1.333 1.872 2.414 4.17 2.414h9.038c2.3 0 4.169-1.08 4.169-2.414v-.302c0-1.331-1.87-2.414-4.169-2.414h-9.037c-2.3 0-4.17 1.083-4.17 2.414zm59.541.002v.303c0 1.33 1.87 2.413 4.169 2.413h9.04c2.298 0 4.17-1.083 4.17-2.413v-.303c0-1.33-1.872-2.414-4.17-2.414h-9.04c-2.3 0-4.169 1.083-4.169 2.414zm52.467 1.675v19.123c0 1.217-.993 2.21-2.212 2.21h-19.164a2.214 2.214 0 0 1-2.213-2.21V16.225c0-1.219.992-2.21 2.213-2.21h19.164c1.219 0 2.212.991 2.212 2.21zm-76.25-.372c.57.042.897.282 1.118.528.75.832 1.238 2.586 1.379 5.214.15 2.77-.095 5.92-.35 8.806-.223 2.386-.454 4.61-.438 6.546.005.637.038 1.325.095 2.044a1.574 1.574 0 0 0 1.21 1.408c3.919.923 7.778 2.03 11.487 3.326.046.042.11.057.173.072 5.764 1.118 14.118 5.17 19.04 8.354.126.29.339.54.616.715a61.564 61.564 0 0 1 4.647 3.189c10.928 8.27 18.423 24.349 21.128 39.15l.861 6.228.21 5.962c.342 6.792.788 15.254-1.09 21.508l-.03.113c-1.976 8.941-4.416 24.757-10.97 30.719l-2.233 1.383-1.226-1.354c-4.41-5.676-7.84-14.695-21.385-14.905-15.899-.25-20.053 9.662-24.488 15.435l-1.525 1.699-1.456-.442c-3.69-2.69-7.906-14.175-10.34-19.673l-1.006-2.075-.052-.105-1.386-2.502c-3.646-5.33-9.5-5.108-25.833-.948-10.752 2.74-21.388 1.831-30.666-1.673a1.595 1.595 0 0 0-.8-.084c-15.463 2.384-20.256 14.344-17.195 24.399 2.147 7.055 10.75 11.897 16.593 9.853 2.817-.984 4.354-2.689 5.116-4.31.432-.922.596-1.757.63-2.413l.002-.132-.017-.55a1.573 1.573 0 0 0-.737-1.286l-.246-.155-1.35-1.497a5.991 5.991 0 0 1-.286-5.878 6.015 6.015 0 0 1 8.061-2.687c2.766 1.38 4.547 3.732 5.526 6.15 1.693 4.177 1.34 9.212-.7 13.549-2.119 4.505-6.13 8.482-12.03 10.54-13.228 4.623-28.167-4.896-32.065-17.694-4.024-13.226.709-27.549 13.296-35.035a1.576 1.576 0 0 0 .26-2.516c-3.192-2.925-5.925-6.238-8.087-9.841-5.356-8.916-7.983-19.669-6.404-30.432l.015-.188c.256-10.065 3.808-26.894 7.976-39.815 2.885-8.972 5.954-15.594 8.278-17.539.621-.521 1.162-.908 1.621-1.175-.014-.015.11-.09.205-.111.385-.234.713-.377.98-.446a1.88 1.88 0 0 1 .83-.156c.267.005.459.068.575.14a.44.44 0 0 1 .092.04c.68.407 1.388 1.603 1.93 3.865.346 1.442.57 3.042.738 4.663.335 3.401.37 6.752.928 9.267.074.345.173.712.337 1.263.036.124.133.42.234.723a35.235 35.235 0 0 0 .267.759c-2.802 1.375-5.751 2.605-8.431 4.453a1.576 1.576 0 0 0-.405 2.193 1.58 1.58 0 0 0 2.196.403c2.703-1.864 5.91-3.12 9.023-4.715.124-.032.247-.08.367-.143a65.692 65.692 0 0 1 4.052-2.035c2.556-1.186 5.18-2.216 5.244-2.189 3.35-1.173 4.093-1.408 2.996-1.053 2.884-.902 3.933-1.2 4.988-1.48.24.044.494.038.745-.031 5.202-1.5 10.518-2.683 15.903-3.225.244.105.516.151.8.122 5.322-.566 10.663-.83 15.916-.917 3.059-.05 6.208.055 9.398.305a1.576 1.576 0 0 0 1.671-1.268c1.809-9.168 5.954-17.512 10.693-19.755.57-.273 1.063-.454 1.471-.546a.637.637 0 0 1 .333-.063c.3-.084.554-.106.758-.078.13-.025.24-.015.219.03zM41.775 22.13v.3c0 1.333 1.871 2.416 4.17 2.416h9.038c2.3 0 4.169-1.083 4.169-2.416v-.3c0-1.333-1.87-2.416-4.169-2.416h-9.038c-2.299 0-4.17 1.083-4.17 2.416zm29.77 0v.3c0 1.333 1.872 2.416 4.17 2.416h9.039c2.299 0 4.168-1.083 4.168-2.416v-.3c0-1.333-1.87-2.416-4.168-2.416h-9.038c-2.3 0-4.17 1.083-4.17 2.416zm71.661 3.559c.274.09.457.214.54.326.086.058.157.132.22.212.44.612.678 1.814.501 3.807-.267 2.954-1.288 6.41-2.03 9.273-.334 1.274-.608 2.422-.749 3.414-.02.15-.037.286-.05.42a203.969 203.969 0 0 0-.147 1.376 209.845 209.845 0 0 0-.392 3.977c-4.49-2.693-10.733-5.684-15.985-7.18a36.422 36.422 0 0 1 1.922-3.588c-.063.06.118-.248.322-.534a31.949 31.949 0 0 1 3.17-4.44c-.059.028.135-.204.341-.41 1.167-1.387 2.42-2.604 3.716-3.586-.036-.006.108-.118.255-.21 1.373-1.056 2.792-1.855 4.219-2.34.764-.263 1.413-.433 1.95-.524 0-.02.14-.046.237-.033a4.342 4.342 0 0 1 1.114-.082c.343-.015.613.035.846.122zm-71.659 3.954v.303c0 1.33 1.872 2.413 4.17 2.413h9.039c2.299 0 4.17-1.082 4.17-2.413v-.303c0-1.33-1.871-2.413-4.17-2.413h-9.038c-2.3 0-4.17 1.082-4.17 2.413zm-8.254.313c.823 1.102 1.311 2.94 1.606 5.018-4.099.46-8.128 1.264-12.067 2.27-.36.49-.003-.142.408-.701 1.335-2.197 2.842-4.36 4.25-5.706a1.57 1.57 0 0 1 .649-.576c.019-.025.103-.092.181-.15 2.928-1.759 4.16-1.24 4.973-.155zm81.254 21.09l.202.139-.202-.139zm10.655 49.284l-8.444 3.054a1.579 1.579 0 0 0-.947 2.02 1.582 1.582 0 0 0 2.023.947l8.444-3.055a1.579 1.579 0 0 0 .947-2.02 1.582 1.582 0 0 0-2.023-.946zm-53.053 1.705a1.579 1.579 0 0 0 .948 2.02l8.444 3.053a1.582 1.582 0 0 0 2.023-.946 1.579 1.579 0 0 0-.947-2.02l-8.444-3.053a1.582 1.582 0 0 0-2.024.946zm32.735 3.16c-1.762.519-3.47 1.574-4.682 3.048l-.278.368-.1-.135a9.045 9.045 0 0 0-4.319-2.884c-3.368-1.028-7.356.03-9.23 4.158a1.58 1.58 0 0 0 2.879 1.301c1.139-2.514 3.362-3.075 5.427-2.444 1.912.582 3.505 2.148 3.874 4.179l.027.202-.002.103c.002.077.004.155.008.237-.795.158-1.555.39-2.22.662-.879.358-1.775.858-2.346 1.5a1.57 1.57 0 0 0 .129 2.224c.65.58 1.648.523 2.227-.129a1.93 1.93 0 0 1 .358-.267c.212-.13.49-.27.825-.408a9.303 9.303 0 0 1 2.356-.603c.86-.1 1.68-.07 2.362.114.67.18 1.164.494 1.501.937a1.578 1.578 0 0 0 2.52-1.898c-.846-1.12-2.006-1.762-3.196-2.083a8.004 8.004 0 0 0-1.328-.238c-.004-.071-.01-.14-.015-.208l-.019-.128.006-.223c.07-.858.426-1.644.994-2.336.775-.94 1.922-1.667 3.14-2.026 1.229-.364 2.36-.307 3.16.075.72.345 1.363 1.043 1.555 2.46a1.58 1.58 0 0 0 3.13-.423c-.324-2.373-1.558-4.038-3.324-4.881-1.69-.807-3.665-.772-5.419-.254zm22.38.967l-8.893 1.24a1.575 1.575 0 1 0 .435 3.122l8.893-1.24a1.575 1.575 0 1 0-.436-3.122zm-56.936 2.1a1.575 1.575 0 0 0 1.346 1.778l8.892 1.24a1.577 1.577 0 1 0 .436-3.121l-8.893-1.24a1.577 1.577 0 0 0-1.78 1.343zm-1.57 15.544c0 4.789 3.408 8.787 7.933 9.712a1.574 1.574 0 0 0-1.403 1.253l-1.063 5.153a1.578 1.578 0 1 0 3.093.637l1.063-5.153a1.576 1.576 0 0 0-.907-1.761c.395.048.802.073 1.217.073 5.477 0 9.93-4.442 9.93-9.914 0-5.474-4.453-9.914-9.93-9.914-5.483 0-9.933 4.44-9.933 9.914zm42.242 0c0 5.472 4.453 9.914 9.935 9.914.227 0 .454-.008.678-.023a1.573 1.573 0 0 0-.807 1.713l1.061 5.153a1.578 1.578 0 0 0 3.093-.637l-1.061-5.153a1.578 1.578 0 0 0-1.175-1.215c4.625-.843 8.143-4.892 8.143-9.752 0-5.474-4.454-9.914-9.932-9.914-5.482 0-9.935 4.44-9.935 9.914zm-33.75-4.816a3.379 3.379 0 0 0 6.71.571 6.72 6.72 0 0 1 1.503 4.245c0 3.73-3.036 6.76-6.772 6.76-3.742 0-6.775-3.03-6.775-6.76 0-3.444 2.579-6.286 5.916-6.708a3.34 3.34 0 0 0-.581 1.892zm41.003 0a3.38 3.38 0 1 0 6.7-.625 6.751 6.751 0 0 1 2.756 5.44c0 3.73-3.037 6.762-6.774 6.762-3.741 0-6.777-3.032-6.777-6.761a6.765 6.765 0 0 1 4.467-6.36 3.36 3.36 0 0 0-.372 1.544zm-39.028 16.805l.758 4.699a1.58 1.58 0 0 0 3.118-.503l-.758-4.698a1.58 1.58 0 0 0-3.118.502zm37.62-.5l-.759 4.698a1.579 1.579 0 0 0 3.118.503l.758-4.699a1.579 1.579 0 0 0-3.118-.502z" id="Shape"/></g></g></g></svg>