<svg width="242" height="22" viewBox="0 0 242 22" xmlns="http://www.w3.org/2000/svg"><title>c-logo</title><g id="C!-Logo-White" fill="none" fill-rule="evenodd"><g id="c-logo" fill="#FFF"><g id="Group"><path d="M10.528 21.008C4.849 21.008 0 16.722 0 10.626 0 4.531 4.82.277 10.231.277c4.37 0 7.048 1.843 8.744 4.344L14.9 7.384c-.773-1.19-2.022-2.408-4.579-2.408-2.975 0-4.787 2.468-4.787 5.65 0 3.182 1.873 5.681 4.965 5.681 2.616 0 3.896-1.189 4.759-2.795l4.164 2.676c-1.992 3.361-4.788 4.82-8.894 4.82z" id="Shape"/><path d="M18.886 10.626c0-6.095 5.026-10.349 10.852-10.349 5.831 0 10.858 4.254 10.858 10.349 0 6.096-5.027 10.382-10.858 10.382-5.825 0-10.852-4.286-10.852-10.382zm16.178 0c0-3.183-1.933-5.65-5.326-5.65-3.389 0-5.321 2.468-5.321 5.65 0 3.182 1.932 5.681 5.321 5.681 3.393 0 5.326-2.498 5.326-5.681zM47.021 10.655v10.081h-5.088V.245c0-.176.088-.325.416-.058l12.7 10.468V.516h5.087v20.519c0 .237-.091.327-.417.06l-12.698-10.44zM70.689 20.944c-.087.179-.266.179-.355 0L60.816.516h5.77l4.135 9.428L74.735.516h5.504l-9.55 20.428zM80.922.516h14.183v4.55h-8.771v3.331h7.315v4.312h-7.315v3.479h9.19v4.549H80.922V.516zM102.36 20.736h-5.409V.516h8.177c5.146 0 8 3.033 8 7.165 0 2.676-1.279 4.788-3.687 5.892l4.192 7.164h-5.86l-3.568-6.334h-1.846v6.333h.001zm2.502-10.464c1.842 0 2.824-.926 2.824-2.592 0-1.662-.982-2.587-2.824-2.587h-2.501v5.179h2.501z" id="Shape"/><path d="M113.069 17.289l3.926-2.945c.98 1.22 2.2 2.198 4.22 2.198 1.607 0 2.559-.474 2.559-1.605 0-.862-.655-1.275-1.992-1.723l-2.378-.803c-2.945-.981-5.024-2.766-5.024-6.096 0-3.988 3.299-6.038 6.897-6.038 3.57 0 5.708 1.276 6.897 2.676l-3.092 3.24c-.832-.863-1.902-1.456-3.509-1.456-1.308 0-1.963.593-1.963 1.398 0 .773.444 1.159 1.427 1.488l2.677.89c4.044 1.339 5.413 3.273 5.413 6.126 0 3.72-2.319 6.395-7.673 6.395-4.55 0-7.136-2.082-8.385-3.745zM130.526.516h5.413v20.221h-5.413V.516zM137.396 10.626c0-6.095 5.026-10.349 10.854-10.349 5.829 0 10.856 4.254 10.856 10.349 0 6.096-5.027 10.382-10.856 10.382-5.828 0-10.854-4.286-10.854-10.382zm16.178 0c0-3.183-1.933-5.65-5.324-5.65s-5.324 2.468-5.324 5.65c0 3.182 1.933 5.681 5.324 5.681s5.324-2.498 5.324-5.681zM165.529 10.655v10.081h-5.086V.245c0-.176.09-.325.416-.058l12.7 10.468V.516h5.084v20.519c0 .237-.089.327-.416.06l-12.698-10.44zM181.082.516h5.412v20.221h-5.412V.516zM187.297 17.289l3.925-2.945c.983 1.22 2.202 2.198 4.223 2.198 1.608 0 2.559-.474 2.559-1.605 0-.862-.654-1.275-1.991-1.723l-2.38-.803c-2.944-.981-5.025-2.766-5.025-6.096 0-3.988 3.302-6.038 6.899-6.038 3.569 0 5.711 1.276 6.9 2.676l-3.095 3.24c-.831-.863-1.903-1.456-3.508-1.456-1.308 0-1.963.593-1.963 1.398 0 .773.447 1.159 1.428 1.488l2.678.89c4.042 1.339 5.41 3.273 5.41 6.126 0 3.72-2.317 6.395-7.671 6.395-4.552 0-7.139-2.082-8.389-3.745zM208.176 5.065h-5.354V.515h16.12v4.55h-5.354v15.671h-5.412V5.065zM228.935 18.3h-7.05l-1.014 2.437h-5.292L225.427.156c.086-.207.264-.207.354 0l9.814 20.581h-5.592l-1.068-2.437zm-5.386-3.926h3.658l-1.842-4.282-1.816 4.282zM235.743 18.119c0-1.725 1.397-2.912 2.973-2.912 1.547 0 2.975 1.188 2.975 2.912 0 1.729-1.428 2.915-2.975 2.915-1.575 0-2.973-1.186-2.973-2.915zm.179-17.603h5.59l-.596 13.383h-4.399L235.922.516z" id="Shape"/></g></g></g></svg>