<?xml version="1.0" encoding="UTF-8"?>
<svg width="250px" height="250px" viewBox="0 0 250 250" version="1.1" xmlns="http://www.w3.org/2000/svg" xmlns:xlink="http://www.w3.org/1999/xlink">
    <!-- Generator: Sketch 41.1 (35376) - http://www.bohemiancoding.com/sketch -->
    <title>Untitled 2</title>
    <desc>Created with Sketch.</desc>
    <defs></defs>
    <g id="Page-1" stroke="none" stroke-width="1" fill="none" fill-rule="evenodd">
        <g id="red_brain_h" transform="translate(40.000000, 31.000000)" fill="#C61618">
            <g id="Page-1">
                <g id="red_brain">
                    <g id="Brain">
                        <g id="Artboard-1">
                            <g id="brain" transform="translate(0.962687, 0.000000)">
                                <g id="Group">
                                    <path d="M137.78806,136.531343 C143.99403,111.989552 176.998507,100.141791 166.279104,50.2119403 C155.841791,0.564179104 97.1671642,-4.51343284 66.7014925,3.10298507 C35.3895522,11.2835821 10.2835821,44.5701493 18.4641791,72.4970149 C19.0283582,74.7537313 18.7462687,77.0104478 17.6179104,78.9850746 C13.6686567,84.9089552 3.51343284,97.8850746 0.692537313,105.501493 C-0.435820896,108.322388 1.25671642,111.143284 4.07761194,111.989552 C4.9238806,112.271642 10.2835821,114.246269 11.1298507,114.528358 C18.4641791,116.785075 17.0537313,132.864179 17.0537313,147.532836 C17.0537313,162.765672 33.4149254,160.791045 38.7746269,159.662687 C44.1343284,158.534328 56.2641791,157.40597 56.2641791,172.074627 C56.2641791,174.049254 56.2641791,175.459701 56.5462687,176.870149 C56.8283582,179.691045 58.5208955,182.229851 61.341791,183.358209 C72.061194,187.589552 103.373134,194.077612 140.891045,180.537313 C143.147761,179.691045 143.99403,177.152239 143.147761,175.177612 C139.198507,168.125373 132.992537,154.867164 137.78806,136.531343 L137.78806,136.531343 Z M125.658209,113.68209 C117.195522,118.195522 110.707463,113.11791 107.322388,109.450746 C105.347761,110.297015 103.373134,110.861194 101.398507,110.861194 C98.0134328,110.861194 94.6283582,109.732836 92.0895522,107.476119 C92.0895522,107.758209 80.5238806,110.297015 78.5492537,102.398507 L79.1134328,102.398507 L79.6776119,102.398507 C86.7298507,102.116418 93.5,98.4492537 99.7059701,91.1149254 C100.834328,89.9865672 100.552239,88.0119403 99.4238806,86.8835821 C98.2955224,85.7552239 96.3208955,86.0373134 95.1925373,87.1656716 C90.1149254,93.0895522 84.7552239,96.1925373 79.3955224,96.4746269 C77.7029851,96.4746269 76.2925373,96.1925373 75.1641791,95.9104478 C74.8820896,95.9104478 74.3179104,95.6283582 74.0358209,95.6283582 C73.7537313,95.6283582 73.1895522,95.3462687 72.9074627,95.0641791 C70.0865672,93.6537313 68.1119403,91.961194 68.1119403,91.961194 C68.1119403,91.961194 67.8298507,91.961194 67.8298507,91.6791045 C63.880597,87.7298507 63.880597,82.0880597 64.7268657,78.4208955 C50.6223881,80.1134328 44.1343284,74.7537313 41.0313433,69.6761194 C42.1597015,69.3940299 43.5701493,69.1119403 44.6985075,68.8298507 C48.3656716,67.419403 51.4686567,64.5985075 53.161194,60.3671642 C53.7253731,58.9567164 53.161194,57.2641791 51.7507463,56.4179104 C50.3402985,55.8537313 48.6477612,56.4179104 47.8014925,57.8283582 C46.6731343,60.6492537 44.980597,62.341791 42.7238806,63.1880597 C40.7492537,64.0343284 38.4925373,64.0343284 36.5179104,63.7522388 C32.0044776,61.4955224 28.9014925,56.9820896 28.9014925,51.6223881 C28.9014925,44.5701493 34.261194,38.6462687 41.3134328,38.0820896 C40.4671642,36.6716418 40.1850746,35.261194 40.4671642,33.5686567 C41.0313433,30.7477612 43.2880597,28.2089552 46.3910448,27.9268657 L47.2373134,27.9268657 C48.0835821,30.7477612 50.058209,34.4149254 53.7253731,36.1074627 C54.8537313,36.6716418 55.7,36.6716418 56.8283582,36.6716418 C59.0850746,36.6716418 61.6238806,35.8253731 64.1626866,33.8507463 C65.5731343,33.0044776 65.8552239,31.0298507 64.7268657,29.619403 C63.880597,28.2089552 61.9059701,27.9268657 60.4955224,29.0552239 C59.0850746,30.1835821 57.1104478,31.0298507 55.7,30.4656716 C54.0074627,29.9014925 52.8791045,27.3626866 52.3149254,25.3880597 C54.2895522,21.7208955 58.238806,19.4641791 62.7522388,19.4641791 C65.2910448,19.4641791 67.5477612,20.3104478 69.2402985,21.438806 C70.9328358,16.9253731 75.1641791,13.5402985 80.5238806,13.5402985 C83.3447761,13.5402985 85.8835821,14.3865672 87.858209,16.0791045 C90.1149254,12.9761194 93.5,11.0014925 97.7313433,11.0014925 C101.680597,11.0014925 105.347761,12.9761194 107.322388,16.0791045 C108.732836,15.2328358 110.707463,14.6686567 112.4,14.6686567 C116.631343,14.6686567 120.580597,17.4895522 121.991045,21.1567164 C123.401493,20.3104478 125.09403,19.7462687 126.786567,19.7462687 C131.58209,19.7462687 135.531343,23.6955224 135.531343,28.4910448 L135.531343,29.0552239 C136.659701,28.4910448 138.070149,28.2089552 139.480597,28.7731343 C141.737313,29.3373134 143.71194,31.0298507 144.276119,33.5686567 C144.558209,34.9791045 144.276119,36.3895522 143.99403,37.5179104 L144.276119,37.5179104 C148.507463,37.5179104 151.892537,40.9029851 151.892537,45.1343284 C151.892537,46.5447761 151.328358,47.9552239 150.764179,49.0835821 C145.968657,48.2373134 139.762687,49.6477612 134.967164,56.4179104 C134.120896,57.8283582 134.402985,59.5208955 135.813433,60.3671642 C136.377612,60.6492537 136.941791,60.9313433 137.50597,60.9313433 C138.352239,60.9313433 139.198507,60.3671642 140.044776,59.8029851 C145.968657,51.6223881 153.585075,55.8537313 154.431343,56.4179104 L154.713433,56.4179104 C156.970149,60.0850746 158.098507,64.3164179 158.098507,68.8298507 C158.098507,76.1641791 154.713433,82.9343284 149.635821,87.4477612 C150.2,89.4223881 150.2,91.3970149 149.635821,93.6537313 C148.507463,97.6029851 145.404478,100.70597 141.455224,101.552239 C139.198507,102.116418 136.941791,101.834328 134.967164,101.270149 C134.120896,105.783582 131.58209,110.579104 125.658209,113.68209 L125.658209,113.68209 Z" id="Shape"></path>
                                    <path d="M80.5238806,49.0835821 C75.7283582,54.161194 74.3179104,62.0597015 76.5746269,68.8298507 C77.138806,69.958209 78.2671642,70.8044776 79.3955224,70.8044776 C79.6776119,70.8044776 79.9597015,70.8044776 80.5238806,70.5223881 C81.9343284,69.958209 82.780597,68.2656716 82.2164179,66.8552239 C80.5238806,62.341791 81.6522388,56.7 85.0373134,53.3149254 C86.1656716,52.1865672 86.1656716,50.2119403 84.7552239,49.0835821 C83.3447761,47.6731343 81.6522388,47.6731343 80.5238806,49.0835821 L80.5238806,49.0835821 Z" id="Shape"></path>
                                    <path d="M135.813433,38.9283582 C132.146269,32.158209 125.940299,30.1835821 120.298507,30.1835821 C119.734328,28.2089552 118.88806,25.1059701 117.477612,22.5671642 C116.631343,21.1567164 114.938806,20.8746269 113.528358,21.7208955 C112.11791,22.5671642 111.835821,24.2597015 112.68209,25.6701493 C113.810448,27.3626866 114.374627,29.3373134 114.656716,31.0298507 C112.964179,31.5940299 111.553731,32.158209 110.425373,32.7223881 C109.014925,33.5686567 108.450746,35.261194 109.014925,36.6716418 C109.861194,38.0820896 111.553731,38.6462687 112.964179,38.0820896 C113.528358,37.8 125.376119,32.158209 130.735821,41.7492537 C131.3,42.5955224 132.146269,43.1597015 133.274627,43.1597015 C133.838806,43.1597015 134.120896,43.1597015 134.685075,42.8776119 C135.813433,42.0313433 136.377612,40.338806 135.813433,38.9283582 L135.813433,38.9283582 Z" id="Shape"></path>
                                    <path d="M109.014925,70.5223881 C110.425373,76.1641791 114.374627,79.5492537 119.734328,80.1134328 L120.016418,80.1134328 C121.426866,80.1134328 122.837313,78.9850746 122.837313,77.2925373 C122.837313,75.6 121.708955,74.1895522 120.016418,74.1895522 C118.323881,74.1895522 116.913433,73.3432836 116.067164,72.2149254 C114.374627,70.2402985 114.092537,67.1373134 114.092537,66.2910448 L114.092537,64.880597 C113.810448,63.7522388 112.68209,62.9059701 111.271642,62.9059701 C101.116418,62.9059701 99.4238806,53.3149254 99.141791,52.7507463 C98.8597015,51.058209 97.4492537,50.2119403 95.7567164,50.4940299 C94.0641791,50.7761194 93.2179104,52.1865672 93.2179104,53.8791045 C94.0641791,58.6746269 98.0134328,67.1373134 108.168657,68.5477612 C108.732836,68.8298507 108.732836,69.6761194 109.014925,70.5223881 L109.014925,70.5223881 Z" id="Shape"></path>
                                    <path d="M88.7044776,20.3104478 C87.2940299,20.8746269 86.4477612,22.5671642 86.7298507,23.9776119 C87.858209,27.3626866 87.858209,30.1835821 86.4477612,32.158209 C83.6268657,36.3895522 76.8567164,37.2358209 76.5746269,37.2358209 C74.8820896,37.5179104 73.7537313,38.9283582 74.0358209,40.338806 C74.3179104,41.7492537 75.4462687,42.8776119 76.8567164,42.8776119 L77.138806,42.8776119 C77.4208955,42.8776119 87.0119403,41.7492537 91.2432836,34.9791045 C93.5,31.3119403 94.0641791,26.7985075 92.0895522,21.7208955 C91.8074627,20.5925373 90.1149254,19.7462687 88.7044776,20.3104478 L88.7044776,20.3104478 Z" id="Shape"></path>
                                    <path d="M125.940299,101.270149 C121.708955,102.962687 118.323881,103.244776 115.785075,102.116418 C112.4,100.423881 111.271642,96.4746269 110.989552,96.4746269 C110.425373,94.7820896 109.014925,93.9358209 107.322388,94.5 C105.629851,95.0641791 104.783582,96.4746269 105.347761,98.1671642 C105.347761,98.4492537 107.040299,104.655224 112.964179,107.476119 C114.938806,108.322388 116.913433,108.886567 119.170149,108.886567 C121.991045,108.886567 124.81194,108.322388 127.914925,106.91194 C129.325373,106.347761 130.171642,104.655224 129.325373,102.962687 C129.043284,101.270149 127.350746,100.70597 125.940299,101.270149 L125.940299,101.270149 Z" id="Shape"></path>
                                </g>
                            </g>
                        </g>
                    </g>
                </g>
            </g>
        </g>
    </g>
</svg>