<?xml version="1.0" encoding="UTF-8"?>
<svg width="76px" height="98px" viewBox="0 0 76 98" version="1.1" xmlns="http://www.w3.org/2000/svg" xmlns:xlink="http://www.w3.org/1999/xlink" xmlns:sketch="http://www.bohemiancoding.com/sketch/ns">
    <!-- Generator: Sketch 3.4.2 (15855) - http://www.bohemiancoding.com/sketch -->
    <title>red_funnel</title>
    <desc>Created with Sketch.</desc>
    <defs></defs>
    <g id="Page-1" stroke="none" stroke-width="1" fill="none" fill-rule="evenodd" sketch:type="MSPage">
        <g id="red_funnel" sketch:type="MSLayerGroup" transform="translate(-11.000000, 0.000000)" fill="#C61618">
            <path d="M85.72,46.05 L58.06,79.63 C56.2990962,81.7366692 55.333004,84.3943073 55.33,87.14 L55.33,95 C55.33,96.6568542 53.9868542,98 52.33,98 L45.49,98 C43.8331458,98 42.49,96.6568542 42.49,95 L42.49,87.1 C42.4879385,84.3636668 41.5293029,81.7141537 39.78,79.61 L12.31,46.09 C11.5942372,44.8969483 11.2173841,43.5312878 11.22,42.14 C11.22,34.95 20.7,31.14 31.22,29.23 C30.92,30.23 30.65,31.16 30.37,32.23 C29.8349009,34.0353121 29.7866023,35.9500051 30.23,37.78 C24.23,39.11 20.43,40.88 19.5,42.16 C21.2,44.47 32.12,48.4 49,48.4 C65.88,48.4 76.81,44.47 78.5,42.16 C77.5,40.74 72.9,38.7 65.62,37.35 C67.0423964,34.9559863 67.859343,32.251138 68,29.47 C78,31.42 86.75,35.24 86.75,42.14 C86.7635507,43.5121219 86.4077902,44.8626303 85.72,46.05 L85.72,46.05 Z M50.1,31 C49.3288965,31.3290005 48.4983367,31.4957933 47.66,31.49 C47.3623737,31.4885433 47.0651287,31.4685043 46.77,31.43 C44.8483432,31.2193185 42.9811707,30.6601833 41.26,29.78 C40.8510302,29.531901 40.3875373,29.3877033 39.91,29.36 C38.73,29.36 38.36,30.52 38.18,31.08 C37.87,32.08 37.6,33.08 37.3,34.15 C36.81,35.97 37.15,36.73 38.86,37.56 L38.86,37.56 C40.6090778,38.3564689 42.4654901,38.8921668 44.37,39.15 L45.04,39.26 L45.04,39.99 L45.04,41.99 C44.9967926,42.5892926 45.2111311,43.1785819 45.6292599,43.6100755 C46.0473887,44.0415692 46.6296449,44.2743365 47.23,44.25 L48.62,44.25 L50.22,44.25 C50.8239396,44.3035637 51.4195729,44.0802681 51.839462,43.6428836 C52.2593512,43.205499 52.4581594,42.6012514 52.38,42 L52.38,41.22 L52.38,41.04 L52.38,39.22 C52.38,38.79 52.38,38.66 52.95,38.51 C55.1594171,37.928244 57.1293551,36.6651044 58.58,34.9 C60.4817193,32.6076116 61.2625811,29.5868131 60.71,26.66 C60.0904127,23.5452699 58.1143552,20.8689768 55.32,19.36 C53.8060372,18.5569366 52.2467497,17.8424023 50.65,17.22 L50,17 C49.0617074,16.6403455 48.1794945,16.1487306 47.38,15.54 C46.8972351,15.1828082 46.6387466,14.5974077 46.7,14 C46.8231222,13.3932094 47.2560289,12.8957465 47.84,12.69 C48.2923693,12.5110963 48.7735784,12.41621 49.26,12.41 L49.98,12.41 C51.8402892,12.4059082 53.676958,12.8265977 55.35,13.64 C55.7519772,13.8517277 56.1960571,13.9712877 56.65,13.99 C56.8626612,13.992406 57.0735942,13.9515802 57.27,13.87 C57.8361739,13.5497307 58.2342862,12.9982173 58.36,12.36 C58.63,11.54 58.86,10.7 59.1,9.87 L59.38,8.87 C59.571281,8.33842562 59.541404,7.75234659 59.2970582,7.24297948 C59.0527123,6.73361238 58.6143083,6.3435057 58.08,6.16 C56.6893486,5.53900207 55.2236599,5.10198481 53.72,4.86 C52.63,4.69 52.63,4.69 52.63,3.59 C52.63,0.59 52.33,0.01 49.35,0.01 L47.84,0.01 C46.1,0.06 45.5,0.67 45.45,2.42 L45.45,3.53 L45.45,4.12 C45.45,5.12 45.45,5.12 44.45,5.47 C40,7.08 37.62,10.13 37.35,14.47 C37.12,18.23 38.83,21.15 42.57,23.39 C43.9247446,24.167761 45.3392046,24.8365364 46.8,25.39 C47.42,25.64 48.03,25.88 48.64,26.15 C49.3566115,26.4347807 50.0298148,26.8185065 50.64,27.29 C51.3731202,27.6910859 51.7795891,28.5056993 51.6592243,29.3326499 C51.5388595,30.1596005 50.9170374,30.8245435 50.1,31 L50.1,31 Z" id="Shape" sketch:type="MSShapeGroup"></path>
        </g>
    </g>
</svg>