<?xml version="1.0" encoding="UTF-8"?>
<svg width="250px" height="250px" viewBox="0 0 250 250" version="1.1" xmlns="http://www.w3.org/2000/svg" xmlns:xlink="http://www.w3.org/1999/xlink">
    <!-- Generator: Sketch 41.1 (35376) - http://www.bohemiancoding.com/sketch -->
    <title>Untitled</title>
    <desc>Created with Sketch.</desc>
    <defs></defs>
    <g id="Page-1" stroke="none" stroke-width="1" fill="none" fill-rule="evenodd">
        <g id="red_calculator_h" transform="translate(30.000000, 26.000000)" fill="#C61618">
            <g id="Page-1">
                <g id="red_calculator">
                    <g id="VTDC">
                        <g id="Artboard-1">
                            <g id="calculator" transform="translate(0.716981, 0.000000)">
                                <g id="Group">
                                    <g>
                                        <path d="M45.2830189,0.560320183 C20.754717,0.560320183 0.518867925,20.7489994 0.518867925,45.2201258 C0.518867925,69.6912521 20.754717,89.8799314 45.2830189,89.8799314 C69.8113208,89.8799314 90.0471698,69.6912521 90.0471698,45.2201258 C90.0471698,20.7489994 69.8113208,0.560320183 45.2830189,0.560320183 L45.2830189,0.560320183 Z M45.2830189,79.4797027 C26.2735849,79.4797027 10.9433962,64.1852487 10.9433962,45.2201258 C10.9433962,26.2550029 26.2735849,10.9605489 45.2830189,10.9605489 C64.2924528,10.9605489 79.6226415,26.2550029 79.6226415,45.2201258 C79.6226415,64.1852487 64.2924528,79.4797027 45.2830189,79.4797027 L45.2830189,79.4797027 Z" id="Shape"></path>
                                        <path d="M144.009434,0.560320183 C119.481132,0.560320183 99.245283,20.7489994 99.245283,45.2201258 C99.245283,69.6912521 119.481132,89.8799314 144.009434,89.8799314 C168.537736,89.8799314 188.773585,69.6912521 188.773585,45.2201258 C188.773585,20.7489994 168.537736,0.560320183 144.009434,0.560320183 L144.009434,0.560320183 Z M144.009434,79.4797027 C125,79.4797027 109.669811,64.1852487 109.669811,45.2201258 C109.669811,26.2550029 125,10.9605489 144.009434,10.9605489 C163.018868,10.9605489 178.349057,26.2550029 178.349057,45.2201258 C178.349057,64.1852487 163.018868,79.4797027 144.009434,79.4797027 L144.009434,79.4797027 Z" id="Shape"></path>
                                        <path d="M45.2830189,109.456832 C20.754717,109.456832 0.518867925,129.645512 0.518867925,154.116638 C0.518867925,178.587764 20.754717,198.776444 45.2830189,198.776444 C69.8113208,198.776444 90.0471698,178.587764 90.0471698,154.116638 C90.0471698,129.645512 69.8113208,109.456832 45.2830189,109.456832 L45.2830189,109.456832 Z M45.2830189,188.376215 C26.2735849,188.376215 10.9433962,173.081761 10.9433962,154.116638 C10.9433962,135.151515 26.2735849,119.857061 45.2830189,119.857061 C64.2924528,119.857061 79.6226415,135.151515 79.6226415,154.116638 C79.6226415,173.081761 64.2924528,188.376215 45.2830189,188.376215 L45.2830189,188.376215 Z" id="Shape"></path>
                                        <path d="M144.009434,108.845054 C119.481132,108.845054 99.245283,129.033734 99.245283,153.50486 C99.245283,177.975986 119.481132,198.164666 144.009434,198.164666 C168.537736,198.164666 188.773585,177.975986 188.773585,153.50486 C188.773585,129.033734 168.537736,108.845054 144.009434,108.845054 L144.009434,108.845054 Z M144.009434,187.764437 C125,187.764437 109.669811,172.469983 109.669811,153.50486 C109.669811,134.539737 125,119.245283 144.009434,119.245283 C163.018868,119.245283 178.349057,134.539737 178.349057,153.50486 C178.349057,172.469983 163.018868,187.764437 144.009434,187.764437 L144.009434,187.764437 Z" id="Shape"></path>
                                        <path d="M58.1603774,40.9376787 L50.8018868,40.9376787 L50.8018868,33.5963408 C50.8018868,30.53745 48.3490566,28.0903373 45.2830189,28.0903373 C42.2169811,28.0903373 39.7641509,30.53745 39.7641509,33.5963408 L39.7641509,40.9376787 L32.4056604,40.9376787 C29.3396226,40.9376787 26.8867925,43.3847913 26.8867925,46.4436821 C26.8867925,49.5025729 29.3396226,51.9496855 32.4056604,51.9496855 L39.7641509,51.9496855 L39.7641509,59.2910234 C39.7641509,62.3499142 42.2169811,64.7970269 45.2830189,64.7970269 C48.3490566,64.7970269 50.8018868,62.3499142 50.8018868,59.2910234 L50.8018868,51.9496855 L58.1603774,51.9496855 C61.2264151,51.9496855 63.6792453,49.5025729 63.6792453,46.4436821 C63.6792453,43.3847913 61.2264151,40.9376787 58.1603774,40.9376787 L58.1603774,40.9376787 Z" id="Shape"></path>
                                        <path d="M156.886792,40.9376787 L131.745283,40.9376787 C128.679245,40.9376787 126.226415,43.3847913 126.226415,46.4436821 C126.226415,49.5025729 128.679245,51.9496855 131.745283,51.9496855 L156.886792,51.9496855 C159.95283,51.9496855 162.40566,49.5025729 162.40566,46.4436821 C162.40566,43.3847913 159.95283,40.9376787 156.886792,40.9376787 L156.886792,40.9376787 Z" id="Shape"></path>
                                        <path d="M50.1886792,143.716409 L32.4056604,161.457976 C29.9528302,163.905089 29.9528302,166.963979 32.4056604,169.411092 C34.8584906,171.858205 37.9245283,171.858205 40.3773585,169.411092 L58.1603774,151.669525 C60.6132075,149.222413 60.6132075,146.163522 58.1603774,143.716409 C55.7075472,141.269297 52.6415094,141.269297 50.1886792,143.716409 L50.1886792,143.716409 Z" id="Shape"></path>
                                        <ellipse id="Oval" cx="36.6981132" cy="145.551744" rx="6.13207547" ry="6.11778159"></ellipse>
                                        <ellipse id="Oval" cx="53.8679245" cy="166.963979" rx="6.13207547" ry="6.11778159"></ellipse>
                                        <path d="M156.886792,143.716409 C154.433962,141.269297 151.367925,141.269297 148.915094,143.716409 L144.009434,148.610635 L139.103774,143.716409 C136.650943,141.269297 133.584906,141.269297 131.132075,143.716409 C128.679245,146.163522 128.679245,149.222413 131.132075,151.669525 L136.037736,156.563751 L131.132075,161.457976 C128.679245,163.905089 128.679245,166.963979 131.132075,169.411092 C133.584906,171.858205 136.650943,171.858205 139.103774,169.411092 L144.009434,164.516867 L148.915094,169.411092 C151.367925,171.858205 154.433962,171.858205 156.886792,169.411092 C159.339623,166.963979 159.339623,163.905089 156.886792,161.457976 L151.981132,156.563751 L156.886792,151.669525 C159.339623,149.222413 159.339623,145.551744 156.886792,143.716409 L156.886792,143.716409 Z" id="Shape"></path>
                                    </g>
                                </g>
                            </g>
                        </g>
                    </g>
                </g>
            </g>
        </g>
    </g>
</svg>