<?xml version="1.0" encoding="UTF-8"?>
<svg width="250px" height="250px" viewBox="0 0 250 250" version="1.1" xmlns="http://www.w3.org/2000/svg" xmlns:xlink="http://www.w3.org/1999/xlink">
    <!-- Generator: Sketch 41.1 (35376) - http://www.bohemiancoding.com/sketch -->
    <title>Untitled 3</title>
    <desc>Created with Sketch.</desc>
    <defs></defs>
    <g id="Page-1" stroke="none" stroke-width="1" fill="none" fill-rule="evenodd">
        <g id="red_microscope" transform="translate(56.000000, 28.000000)" fill="#C61618">
            <g id="Page-1">
                <g id="red_microscope">
                    <g id="Group" transform="translate(0.000000, 4.011968)">
                        <path d="M95.9274194,44.732371 C87.2795468,44.732371 80.2016129,51.8102419 80.2016129,60.4581774 C80.2016129,69.1061129 87.2795468,76.1839839 95.9274194,76.1839839 C104.575292,76.1839839 111.653226,69.1061129 111.653226,60.4581774 C111.653226,51.8102419 104.575292,44.732371 95.9274194,44.732371 Z M95.9274194,51.0226935 C101.175744,51.0226935 105.362903,55.2101613 105.362903,60.4581774 C105.362903,65.7068226 101.175744,69.8936613 95.9274194,69.8936613 C90.679095,69.8936613 86.4919355,65.7068226 86.4919355,60.4581774 C86.4919355,55.2101613 90.679095,51.0226935 95.9274194,51.0226935 Z" id="Shape"></path>
                        <path d="M99.0721844,60.4638387 C99.0721844,62.2008633 97.6640478,63.609 95.9270231,63.609 C94.1899983,63.609 92.7818618,62.2008633 92.7818618,60.4638387 C92.7818618,58.7268141 94.1899983,57.3186774 95.9270231,57.3186774 C97.6640478,57.3186774 99.0721844,58.7268141 99.0721844,60.4638387 Z" id="Shape"></path>
                        <path d="M109.085497,57.4727903 C107.751573,57.5369086 106.603547,58.4363475 106.222089,59.7161736 C105.840631,60.9959997 106.308905,62.3771846 107.39006,63.161129 C124.268292,75.7153548 132.219586,96.9791613 127.710746,117.525871 C123.201849,138.071952 107.088106,154.055032 86.5042205,158.388435 C85.3794548,158.593692 84.4546396,159.393107 84.0888001,160.476338 C83.7229606,161.559569 83.9737155,162.756009 84.7437183,163.601186 C85.5137218,164.446362 86.6816988,164.807161 87.7942273,164.543516 C110.783325,159.703742 128.817881,141.824129 133.853642,118.877032 C138.889335,95.9299355 129.999945,72.1455968 111.149509,58.1238387 C110.560174,57.6695112 109.828852,57.4388313 109.085497,57.4727903 L109.085497,57.4727903 Z" id="Shape"></path>
                        <path d="M78.6282523,156.39629 C78.6282523,158.133315 77.2201157,159.541452 75.483091,159.541452 C73.7460662,159.541452 72.3379297,158.133315 72.3379297,156.39629 C72.3379297,154.659266 73.7460662,153.251129 75.483091,153.251129 C77.2201157,153.251129 78.6282523,154.659266 78.6282523,156.39629 Z" id="Shape"></path>
                        <path d="M102.598602,68.2720161 C101.259296,68.297246 100.082396,69.1666352 99.6646359,70.43937 C99.2468754,71.7121042 99.6796188,73.109841 100.743448,73.923871 C112.855558,83.4436452 118.583098,98.9524355 115.572392,114.061161 C112.561592,129.169887 101.328341,141.288823 86.4919355,145.439177 C85.4078298,145.744232 84.5688203,146.604478 84.2909529,147.695868 C84.0130854,148.787259 84.3385756,149.943986 85.1448138,150.730321 C85.951052,151.516656 87.1155524,151.813136 88.1996574,151.508081 C105.309014,146.722403 118.280081,132.713226 121.752144,115.289661 C125.224094,97.8660968 118.605737,79.9512581 104.638044,68.972129 C104.061742,68.5061363 103.339604,68.2582359 102.598602,68.2720161 L102.598602,68.2720161 Z" id="Shape"></path>
                        <path d="M75.483871,140.65979 C66.8359984,140.65979 59.7580645,147.737661 59.7580645,156.385597 C59.7580645,165.033532 66.8359984,172.111403 75.483871,172.111403 C84.1317435,172.111403 91.2096774,165.033532 91.2096774,156.385597 C91.2096774,147.737661 84.1317435,140.65979 75.483871,140.65979 Z M75.483871,146.950113 C80.7321953,146.950113 84.9193548,151.137581 84.9193548,156.385597 C84.9193548,161.634242 80.7321953,165.821081 75.483871,165.821081 C70.2355466,165.821081 66.0483871,161.634242 66.0483871,156.385597 C66.0483871,151.137581 70.2355466,146.950113 75.483871,146.950113 Z" id="Shape"></path>
                        <path d="M27.5447325,132.920177 C26.3797537,132.892898 25.2951526,133.511909 24.7261286,134.528831 C24.1571046,135.545754 24.1969105,136.793933 24.8295739,137.772532 C33.3629274,151.408065 47.0397871,161.030371 62.7557932,164.457339 C64.4554717,164.827135 66.1331133,163.749053 66.5029101,162.049375 C66.8727068,160.349696 65.7946248,158.672055 64.0949463,158.302258 C50.0308481,155.235097 37.7980137,146.633081 30.1616055,134.431113 C29.6041908,133.514022 28.6176631,132.944418 27.5447325,132.920177 L27.5447325,132.920177 Z" id="Shape"></path>
                        <path d="M43.344254,132.907597 C42.0614462,132.861823 40.8795218,133.600125 40.3579645,134.773015 C39.8364073,135.945904 40.079867,137.318041 40.9730981,138.239903 C47.080454,144.793161 54.9224168,149.471903 63.5912298,151.7295 C64.6798909,152.012786 65.8369845,151.693702 66.6265734,150.892464 C67.416163,150.091226 67.7182677,148.929584 67.4190698,147.845188 C67.1198718,146.760792 66.2648352,145.91842 65.1760955,145.635435 C57.6626952,143.679145 50.8613279,139.619371 45.5679837,133.939839 C44.996858,133.309162 44.1945992,132.936759 43.344254,132.907597 L43.344254,132.907597 Z" id="Shape"></path>
                        <path d="M92.7454031,10.1355968 C91.9283587,10.1486506 91.1484631,10.4791504 90.5708197,11.057129 L46.5631316,55.0774355 C45.7401116,55.865995 45.4080828,57.0380925 45.6952522,58.1411436 C45.9824216,59.2441948 46.8438508,60.1055862 47.9469146,60.3927072 C49.0499784,60.6798283 50.2220612,60.3477482 51.0105847,59.5246935 L92.7945431,17.7286452 L111.923515,36.8575161 L101.566593,47.2145323 C100.77212,48.0111796 100.463016,49.1711651 100.755722,50.2575154 C101.048428,51.3438658 101.898473,52.1915307 102.985639,52.4811896 C104.072807,52.7708485 105.23192,52.4584935 106.026337,51.6617903 L118.594697,39.0811452 C119.822338,37.8528883 119.822338,35.862144 118.594697,34.6338871 L95.0182727,11.057129 C94.4165468,10.4550721 93.596507,10.122588 92.7454031,10.1355968 L92.7454031,10.1355968 Z M84.8702148,65.1268548 C84.0539731,65.1495912 83.2785619,65.4888547 82.7079165,66.0729194 L70.1395563,78.6535645 C69.3165361,79.4421238 68.9845078,80.6142216 69.2716767,81.7172724 C69.5588463,82.8203239 70.4202758,83.681715 71.5233392,83.9688361 C72.6264032,84.2559573 73.798486,83.9238773 74.5870094,83.1008226 L87.1553695,70.5201774 C88.0808395,69.6152642 88.3574961,68.2358115 87.8525323,67.0440168 C87.3475684,65.8522228 86.1640876,65.0914303 84.8702148,65.1268548 L84.8702148,65.1268548 Z" id="Shape"></path>
                        <path d="M53.3817406,58.8981774 C52.5654988,58.920914 51.7900879,59.2601775 51.2194423,59.8442419 L30.8004664,80.2752097 C29.5724066,81.5035386 29.5724066,83.4947679 30.8004664,84.7230968 L44.9414047,98.8511613 C46.1696839,100.078932 48.1605785,100.078932 49.3888577,98.8511613 L69.8078361,78.4327742 C70.6261178,77.6431896 70.9545368,76.4734368 70.6668048,75.3733286 C70.3790729,74.2732198 69.5199929,73.4140567 68.4199123,73.1262172 C67.3198318,72.8383777 66.1500475,73.1666828 65.3603831,73.9848871 L47.1651344,92.1802742 L37.4716466,82.4988387 L55.6668953,64.2915 C56.5923652,63.3865868 56.8690218,62.0071339 56.3640578,60.8153396 C55.8590937,59.6235454 54.6756136,58.8627533 53.3817406,58.8981774 L53.3817406,58.8981774 Z" id="Shape"></path>
                        <path d="M114.761532,0.700112903 C113.944488,0.713166807 113.164592,1.0436665 112.586949,1.62164516 L96.8857123,17.3355 C96.0626883,18.1240587 95.7306568,19.2961581 96.0178258,20.3992116 C96.3049947,21.5022651 97.1664255,22.3636584 98.269492,22.6507789 C99.372558,22.9378995 100.544643,22.6058165 101.333165,21.7827581 L114.810672,8.29316129 L121.358999,14.8413871 L107.869207,28.3309839 C107.046183,29.1195426 106.714151,30.2916419 107.00132,31.3946954 C107.288489,32.497749 108.14992,33.3591423 109.252987,33.6462628 C110.356052,33.9333834 111.528137,33.6013003 112.31666,32.7782419 L128.030181,17.0650161 C129.257822,15.8367593 129.257822,13.8460149 128.030181,12.6177581 L117.034402,1.62164516 C116.432676,1.01958831 115.612636,0.687104183 114.761532,0.700112903 L114.761532,0.700112903 Z" id="Shape"></path>
                        <path d="M44.0322581,49.4501129 C42.7507074,49.4503074 41.5974106,50.2279775 41.1168154,51.4160013 C40.6362201,52.604025 40.924431,53.964833 41.8453897,54.8560161 L74.7958669,87.8185645 C75.584391,88.6416155 76.7564724,88.9736923 77.8595333,88.6865712 C78.9625949,88.3994494 79.8240225,87.5380602 80.111192,86.4350112 C80.3983622,85.3319623 80.0663364,84.159867 79.24332,83.3713065 L46.2928427,50.4087581 C45.7003083,49.7961468 44.884543,49.4502056 44.0322581,49.4501129 L44.0322581,49.4501129 Z" id="Shape"></path>
                        <path d="M3.14516129,120.216242 L3.14516129,139.08721 L64.4758065,139.08721 L64.4758065,135.942048 L64.4758065,120.216242 L3.14516129,120.216242 Z M9.43548387,126.506565 L58.1854839,126.506565 L58.1854839,132.796887 L9.43548387,132.796887 L9.43548387,126.506565 Z" id="Shape"></path>
                        <polygon id="Shape" points="17.2983871 107.635597 17.2983871 113.925919 48.75 113.925919 48.75 107.635597"></polygon>
                        <path d="M44.0322581,164.2485 C42.9806381,164.248646 41.9986585,164.774315 41.4153832,165.649355 L31.9798994,179.802581 C31.3369043,180.767716 31.2771329,182.008362 31.8243694,183.03084 C32.3716058,184.053316 33.4370642,184.691733 34.5967742,184.692048 L116.370968,184.692048 C117.530678,184.691733 118.596136,184.053316 119.143373,183.03084 C119.690609,182.008362 119.630837,180.767716 118.987843,179.802581 L109.552359,165.649355 C108.969084,164.774315 107.987104,164.248646 106.935484,164.2485 L81.7741935,164.2485 L81.7741935,170.538823 L105.252332,170.538823 L110.49836,178.401726 L40.4693816,178.401726 L45.71541,170.538823 L69.1935484,170.538823 L69.1935484,164.2485 L44.0322581,164.2485 Z" id="Shape"></path>
                    </g>
                </g>
            </g>
        </g>
    </g>
</svg>