<?xml version="1.0" encoding="UTF-8" standalone="no"?>
<svg width="200px" height="200px" viewBox="0 0 200 200" version="1.1" xmlns="http://www.w3.org/2000/svg" xmlns:xlink="http://www.w3.org/1999/xlink" xmlns:sketch="http://www.bohemiancoding.com/sketch/ns">
    <!-- Generator: Sketch 3.3.3 (12072) - http://www.bohemiancoding.com/sketch -->
    <title>converter</title>
    <desc>Created with Sketch.</desc>
    <defs></defs>
    <g id="CSS-Converter" stroke="none" stroke-width="1" fill="none" fill-rule="evenodd" sketch:type="MSPage">
        <g id="Artboard-1" sketch:type="MSArtboardGroup" fill="#C61618">
            <g id="converter" sketch:type="MSLayerGroup" transform="translate(0.000000, 16.600000)">
                <path d="M149.787234,64.6808511 L148.851064,64.6808511 C147.659574,64.3404255 146.468085,63.4893617 145.87234,62.5531915 L135.659574,46.1276596 C134.12766,43.7446809 135.06383,40.7659574 137.191489,39.5744681 C139.319149,38.3829787 142.553191,38.9787234 143.744681,41.106383 L151.489362,53.3617021 L163.489362,45.2765957 C165.617021,43.7446809 168.595745,44.3404255 170.042553,46.4680851 C171.574468,48.5957447 170.978723,51.5744681 168.851064,53.0212766 L153.021277,63.8297872 C151.829787,64.3404255 150.978723,64.6808511 149.787234,64.6808511 L149.787234,64.6808511 Z" id="Shape" sketch:type="MSShapeGroup"></path>
                <g id="Shape-+-Shape" transform="translate(125.957447, 95.319149)" sketch:type="MSShapeGroup">
                    <path d="M29.9574468,21.2765957 C27.2340426,21.2765957 25.1914894,19.1489362 25.1914894,16.5106383 C25.1914894,13.1914894 21.8723404,10.212766 17.7021277,10.212766 C13.5319149,10.212766 10.212766,12.8510638 10.212766,16.5106383 C10.212766,19.2340426 8.08510638,21.2765957 5.44680851,21.2765957 C2.72340426,21.2765957 0.680851064,19.1489362 0.680851064,16.5106383 C0.680851064,7.82978723 8.42553191,0.680851064 17.7021277,0.680851064 C26.9787234,0.680851064 34.7234043,7.82978723 34.7234043,16.5106383 C34.7234043,19.1489362 32.5957447,21.2765957 29.9574468,21.2765957 L29.9574468,21.2765957 Z" id="Shape"></path>
                    <path d="M29.9574468,41.8723404 C27.2340426,41.8723404 25.1914894,39.7446809 25.1914894,37.106383 L25.1914894,17.9574468 C25.1914894,15.2340426 27.3191489,13.1914894 29.9574468,13.1914894 C32.6808511,13.1914894 34.7234043,15.3191489 34.7234043,17.9574468 L34.7234043,37.106383 C34.7234043,39.8297872 32.5957447,41.8723404 29.9574468,41.8723404 L29.9574468,41.8723404 Z" id="Shape"></path>
                    <path d="M5.36170213,41.8723404 C2.63829787,41.8723404 0.595744681,39.7446809 0.595744681,37.106383 L0.595744681,18.2978723 C0.595744681,15.5744681 2.72340426,13.5319149 5.36170213,13.5319149 C8.08510638,13.5319149 10.1276596,15.6595745 10.1276596,18.2978723 L10.1276596,37.106383 C10.4680851,39.8297872 8.08510638,41.8723404 5.36170213,41.8723404 L5.36170213,41.8723404 Z" id="Shape"></path>
                    <path d="M24.2553191,29.9574468 L9.61702128,29.9574468 C6.89361702,29.9574468 4.85106383,27.8297872 4.85106383,25.1914894 C4.85106383,22.4680851 6.9787234,20.4255319 9.61702128,20.4255319 L24.2553191,20.4255319 C26.9787234,20.4255319 29.0212766,22.5531915 29.0212766,25.1914894 C29.106383,27.8297872 26.9787234,29.9574468 24.2553191,29.9574468 L24.2553191,29.9574468 Z" id="Shape"></path>
                </g>
                <g id="Shape-+-Shape-+-Shape" transform="translate(40.851064, 60.425532)" sketch:type="MSShapeGroup">
                    <path d="M27.8285539,9.87234043 L5.36046882,9.87234043 C2.63706456,9.87234043 0.594511373,7.74468085 0.594511373,5.10638298 C0.594511373,2.38297872 2.72217095,0.340425532 5.36046882,0.340425532 L27.8285539,0.340425532 C30.5519582,0.340425532 32.5945114,2.46808511 32.5945114,5.10638298 C32.6796178,7.74468085 30.5519582,9.87234043 27.8285539,9.87234043 L27.8285539,9.87234043 Z" id="Shape"></path>
                    <path d="M16.1689795,25.4468085 C13.4455752,25.4468085 11.403022,23.3191489 11.403022,20.6808511 L11.403022,7.4893617 C11.403022,4.76595745 13.5306816,2.72340426 16.1689795,2.72340426 C18.8072773,2.72340426 20.9349369,4.85106383 20.9349369,7.4893617 L20.9349369,20.6808511 C21.0200433,23.3191489 18.8923837,25.4468085 16.1689795,25.4468085 L16.1689795,25.4468085 Z" id="Shape"></path>
                    <path d="M26.9774901,41.8723404 L6.89238371,41.8723404 C4.16897946,41.8723404 2.12642627,39.7446809 2.12642627,37.106383 L2.12642627,22.4680851 C2.12642627,19.7446809 4.25408584,17.7021277 6.89238371,17.7021277 L26.9774901,17.7021277 C29.7008944,17.7021277 31.7434475,19.8297872 31.7434475,22.4680851 C31.7434475,25.106383 29.615788,27.2340426 26.9774901,27.2340426 L11.7434475,27.2340426 L11.7434475,32.3404255 L26.9774901,32.3404255 C29.7008944,32.3404255 31.7434475,34.4680851 31.7434475,37.106383 C31.7434475,39.7446809 29.7008944,41.8723404 26.9774901,41.8723404 L26.9774901,41.8723404 Z" id="Shape"></path>
                </g>
                <path d="M150.978723,57.5319149 C150.382979,57.5319149 150.042553,57.5319149 149.446809,57.1914894 C147.06383,56.2553191 145.531915,53.6170213 146.468085,51.2340426 C149.191489,43.4893617 148.255319,35.0638298 144.340426,27.5744681 C140.425532,20.0851064 133.87234,14.3829787 125.787234,12 C117.702128,9.27659574 109.021277,9.87234043 101.531915,13.787234 C94.0425532,17.3617021 88.3404255,24 85.9574468,31.7446809 C85.0212766,34.1276596 82.3829787,35.6595745 80,34.7234043 C77.6170213,33.787234 76.0851064,31.1489362 77.0212766,28.7659574 C80.3404255,18.2978723 87.8297872,9.95744681 97.7021277,5.10638298 C107.574468,0.255319149 118.638298,-0.595744681 129.446809,2.9787234 C139.914894,6.29787234 148.595745,13.787234 153.702128,23.3191489 C158.808511,33.1914894 159.659574,44.2553191 156.425532,54.4680851 C154.808511,56.3404255 152.765957,57.5319149 150.978723,57.5319149 L150.978723,57.5319149 Z" id="Shape" sketch:type="MSShapeGroup"></path>
                <path d="M5.53191489,131.659574 C4.34042553,131.659574 3.14893617,131.06383 2.21276596,130.12766 C0.680851064,128.595745 0.425531915,126.553191 1.27659574,124.765957 L17.106383,91.5744681 C18.2978723,89.1914894 21.2765957,88.2553191 23.6595745,89.1914894 C26.0425532,90.1276596 26.9787234,93.3617021 26.0425532,95.7446809 L15.8297872,116.680851 L32.5957447,108.93617 C34.9787234,107.744681 37.9574468,108.93617 39.1489362,111.319149 C40.3404255,113.702128 39.1489362,116.680851 36.7659574,117.617021 L7.91489362,131.404255 C7.06382979,131.404255 6.12765957,131.659574 5.53191489,131.659574 L5.53191489,131.659574 Z" id="Shape" sketch:type="MSShapeGroup"></path>
                <path d="M57.0212766,123.319149 C48.6808511,123.319149 40.5957447,120.93617 33.7021277,116.170213 C31.5744681,114.638298 30.9787234,111.659574 32.5106383,109.617021 C34.0425532,107.489362 37.0212766,106.893617 39.0638298,108.425532 C44.4255319,112 50.4680851,113.787234 56.6808511,113.787234 C74.0425532,113.787234 88.0851064,99.7446809 88.0851064,82.3829787 C88.0851064,65.0212766 74.3829787,50.6382979 57.0212766,50.6382979 C39.6595745,50.6382979 25.6170213,64.6808511 25.6170213,82.0425532 C25.6170213,85.0212766 25.9574468,88 26.8085106,90.9787234 C27.4042553,93.7021277 26.212766,96.3404255 23.4893617,96.9361702 C20.7659574,97.5319149 18.1276596,96.3404255 17.5319149,93.6170213 C16.3404255,89.7021277 15.7446809,85.8723404 15.7446809,81.9574468 C15.7446809,59.2340426 34.2978723,40.6808511 57.0212766,40.6808511 C79.7446809,40.6808511 98.2978723,59.2340426 98.2978723,81.9574468 C98.2978723,104.680851 79.7446809,123.319149 57.0212766,123.319149 L57.0212766,123.319149 Z" id="Shape" sketch:type="MSShapeGroup"></path>
                <path d="M194.638298,166.382979 C194.042553,166.382979 193.106383,166.042553 192.510638,165.787234 L163.489362,152.340426 C161.106383,151.148936 159.914894,148.425532 161.106383,146.042553 C162.297872,143.659574 165.021277,142.468085 167.404255,143.659574 L184.170213,151.404255 L173.957447,130.468085 C172.765957,128.085106 173.957447,125.106383 176.340426,123.914894 C178.723404,122.723404 181.702128,123.914894 182.893617,126.297872 L198.723404,159.489362 C199.659574,161.276596 199.319149,163.659574 197.787234,164.851064 C197.021277,165.787234 195.829787,166.382979 194.638298,166.382979 L194.638298,166.382979 Z" id="Shape" sketch:type="MSShapeGroup"></path>
                <path d="M143.148936,158.042553 C120.425532,158.042553 101.87234,139.489362 101.87234,116.765957 C101.87234,94.0425532 120.425532,75.4893617 143.148936,75.4893617 C165.87234,75.4893617 184.425532,94.0425532 184.425532,116.765957 C184.425532,120.680851 183.829787,124.510638 182.638298,128.425532 C182.042553,131.148936 179.319149,132.340426 176.680851,131.744681 C173.957447,131.148936 172.765957,128.425532 173.361702,125.787234 C174.297872,122.808511 174.553191,119.829787 174.553191,116.851064 C174.553191,99.4893617 160.510638,85.4468085 143.148936,85.4468085 C125.787234,85.4468085 111.744681,99.4893617 111.744681,116.851064 C111.744681,134.212766 125.787234,148.255319 143.148936,148.255319 C149.446809,148.255319 155.744681,146.468085 160.765957,142.893617 C162.893617,141.361702 165.87234,141.957447 167.319149,144.085106 C168.851064,146.212766 168.255319,149.191489 166.12766,150.638298 C159.659574,155.659574 151.574468,158.042553 143.148936,158.042553 L143.148936,158.042553 Z" id="Shape" sketch:type="MSShapeGroup"></path>
            </g>
        </g>
    </g>
</svg>