<?xml version="1.0" encoding="UTF-8" standalone="no"?>
<svg width="200px" height="200px" viewBox="0 0 200 200" version="1.1" xmlns="http://www.w3.org/2000/svg" xmlns:xlink="http://www.w3.org/1999/xlink" xmlns:sketch="http://www.bohemiancoding.com/sketch/ns">
    <!-- Generator: Sketch 3.3.3 (12072) - http://www.bohemiancoding.com/sketch -->
    <title>Group</title>
    <desc>Created with Sketch.</desc>
    <defs></defs>
    <g id="Cat" stroke="none" stroke-width="1" fill="none" fill-rule="evenodd" sketch:type="MSPage">
        <g id="Artboard-1" sketch:type="MSArtboardGroup" fill="#C61618">
            <g id="Group" sketch:type="MSLayerGroup" transform="translate(100.000000, 100.500000) scale(1, -1) translate(-100.000000, -100.500000) translate(0.000000, 8.000000)">
                <g id="Shape" sketch:type="MSShapeGroup">
                    <g>
                        <path d="M0.745263158,11.6045455 L0.745263158,35.0827273 C0.745263158,40.0966477 4.08631579,44.3348295 8.66526316,45.6992045 C5.49894737,55.9751136 2.88421053,67.9475568 1.77473684,77.2038636 L1.22736842,84.0993182 L1.21684211,84.2864205 L0.781052632,92.7249432 C1.12842105,101.274886 3.78315789,109.507386 8.05052632,116.608864 C9.21263158,118.547159 10.5263158,120.403466 11.9768421,122.163068 L15.3936842,125.762159 L12.16,128.078864 C1.89684211,136.862159 -1.59368421,150.598409 2.26947368,163.298239 C6.58526316,177.471761 23.1578947,188.378352 38.3978947,183.049091 C45.1115789,180.709261 49.7705263,176.134716 52.2421053,170.872727 C54.5978947,165.867216 55.0863158,159.915682 53.0147368,154.800852 C51.8126316,151.832443 49.5684211,148.807273 45.9726316,147.016136 C41.4463158,144.754091 35.9368421,146.591477 33.6757895,151.111364 C32.1873684,154.07767 32.4673684,157.466534 34.1178947,160.083864 L35.9178947,162.07892 L35.6421053,163.094318 C35.2378947,163.954148 34.3536842,165.06625 32.3452632,165.768409 C28.5136842,167.105455 21.5452632,163.65142 19.8147368,157.97108 C17.5957895,150.684602 20.1789474,142.14517 29.8736842,138.735284 L34.1894737,137.675739 L41.3136842,139.780114 C49.1852632,141.485057 57.6778947,141.482955 66.2357895,139.302898 C85.4294737,134.415114 87.4463158,135.850966 89.8715789,141.140284 L89.9368421,141.268523 C92.9073684,146.440114 98.3957895,166.716534 106.450526,165.192386 C106.734737,165.13983 107,165.007386 107.214737,164.813977 C114.452632,158.284318 114.936842,147.74983 131.492632,148.010511 C145.48,148.23125 145.170526,157.365625 152.785263,164.288409 C153.216842,164.681534 153.831579,164.803466 154.381053,164.605852 C165.44,160.634659 168.501053,138.455682 170.431579,129.693409 L171.698947,122.463693 C172.36,114.65375 171.418947,105.975568 171.418947,101.302216 L171.410526,101.157159 C169.867368,84.36 161.631579,63.7240909 148.185263,53.5427841 L144.749474,51.1840341 C144.64,50.9191477 144.456842,50.6815909 144.210526,50.5071023 C144.181053,50.4860795 144.153684,50.4671591 144.126316,50.4482386 L144.315789,47.984375 C144.368421,47.40625 144.427368,46.8028977 144.492632,46.1638068 L187.766316,46.1638068 C193.890526,46.1638068 198.863158,41.1982386 198.863158,35.0827273 L198.863158,11.6045455 C198.863158,5.48903409 193.890526,0.525568182 187.766316,0.525568182 L11.84,0.525568182 C5.71578947,0.525568182 0.745263158,5.48903409 0.745263158,11.6045455 L0.745263158,11.6045455 Z M195.705263,11.6045455 L195.705263,35.0827273 C195.705263,39.4554545 192.145263,43.0103977 187.766316,43.0103977 L144.842105,43.0103977 C145.233684,40.7021023 146.848421,35.6755682 147.435789,31.6644318 C147.454737,31.6076705 147.463158,31.5551136 147.471579,31.5046591 C148.090526,31.0842045 148.465263,30.5397159 148.465263,29.946875 L148.465263,29.6441477 C148.465263,29.114375 148.170526,28.6266477 147.673684,28.2272159 C147.633684,27.3253409 147.492632,26.4297727 147.048421,25.4942614 C146.991579,25.2314773 146.884211,25.0107386 146.743158,24.8194318 C146.726316,24.674375 146.652632,24.55875 146.574737,24.4473295 C147.711579,24.0163636 148.465263,23.2742614 148.465263,22.43125 L148.465263,22.1285227 C148.465263,20.7977841 146.593684,19.7151136 144.294737,19.7151136 L135.254737,19.7151136 C132.955789,19.7151136 131.088421,20.7977841 131.088421,22.1285227 L131.088421,22.43125 C131.088421,23.6484659 132.650526,24.6575568 134.677895,24.8215341 C134.618947,24.8572727 134.56,24.8930114 134.507368,24.9497727 C133.446316,25.5909659 132.421053,26.3688068 131.444211,27.264375 C131.273684,27.38 131.126316,27.5124432 130.991579,27.6659091 C129.88,28.6834091 129.031579,29.5894886 128.233684,30.5670455 C128.065263,30.733125 127.924211,30.9055114 127.797895,31.0926136 C126.802105,32.3098295 126.058947,33.3399432 125.376842,34.41 C125.227368,34.6076136 125.103158,34.7989205 125,35.0007386 C124.684211,35.4695455 124.557895,35.6776705 124.433684,35.8878977 L124.44,35.8710795 C123.858947,36.838125 123.317895,37.8261932 122.816842,38.8205682 L122.054737,40.4813636 L117.311579,38.9740341 L112.197895,37.6348864 L112.164211,36.9243182 C112.16,36.5290909 112.172632,36.075 112.218947,35.5094886 C112.269474,34.6538636 112.36,33.5648864 112.461053,32.3581818 L114.526316,32.3581818 C116.825263,32.3581818 118.696842,31.2755114 118.696842,29.9447727 L118.696842,29.6420455 C118.696842,28.3113068 116.825263,27.2286364 114.526316,27.2286364 L112.863158,27.2286364 C112.911579,26.431875 112.951579,25.6330114 112.974737,24.8446591 L114.524211,24.8446591 C116.823158,24.8446591 118.692632,23.7619886 118.692632,22.4291477 L118.692632,22.1285227 C118.692632,20.7956818 116.823158,19.7130114 114.524211,19.7130114 L112.802105,19.7130114 C112.797895,19.6940909 112.795789,19.6772727 112.738947,19.3997727 C112.734737,19.3703409 112.730526,19.3388068 112.722105,19.3114773 C112.644211,18.5988068 112.505263,17.9113636 112.317895,17.2638636 L114.52,17.2638636 C116.818947,17.2638636 118.688421,16.1832955 118.688421,14.8504545 L118.688421,14.5477273 C118.688421,13.2169886 116.818947,12.1343182 114.52,12.1343182 L105.482105,12.1343182 C103.183158,12.1343182 101.311579,13.2169886 101.311579,14.5477273 L101.309474,14.7726705 C101.267368,14.8021023 101.225263,14.8315341 101.191579,14.8861932 C100.124211,15.6577273 99.1263158,16.6521023 98.2042105,17.8125568 C98.1221053,17.8945455 98.0484211,17.9891477 97.9873684,18.1047727 C97.0189474,19.3282955 96.2273684,20.5686364 95.5073684,21.9119886 C95.4210526,22.0465341 95.3452632,22.1852841 95.2863158,22.3450568 C94.4736842,23.8671023 93.8463158,25.2714205 93.2947368,26.7346023 C93.2147368,26.9069886 93.1515789,27.0772727 93.1031579,27.2559659 C92.8336842,27.9392045 92.6926316,28.3449432 92.5557895,28.7527841 L92.5536842,28.7548864 C92.1726316,29.8859091 91.8294737,31.03375 91.5263158,32.19 L91.0378947,34.3132955 L87.5073684,34.1156818 C85.8905263,34.063125 84.2863158,34.0505114 82.7031579,34.0778409 C80.0421053,34.1198864 77.3536842,34.2081818 74.6484211,34.3595455 L68.0610526,34.8851136 L67.9936842,34.2964773 C67.8863158,33.5753977 67.7494737,32.8417045 67.5705263,32.120625 L67.5578947,32.0344318 C65.4778947,23.3457386 60.2715789,25.2146591 57.1073684,27.1298295 C56.9789474,27.2055114 56.8526316,27.2875 56.7263158,27.3989205 C56.7031579,27.4010227 56.6757895,27.4178409 56.6505263,27.4346591 C56.6463158,27.4367614 56.6421053,27.4388636 56.6378947,27.4409659 C56.1389474,27.3001136 55.5747368,27.2286364 54.9852632,27.2286364 L45.9473684,27.2286364 C43.6484211,27.2286364 41.7768421,28.3113068 41.7768421,29.6420455 L41.7768421,29.9447727 C41.7768421,31.2755114 43.6484211,32.3581818 45.9473684,32.3581818 L52.0463158,32.3581818 C51.3873684,33.3294318 50.7684211,34.3448295 50.3178947,35.2572159 C50.1789474,35.4632386 50.0631579,35.6566477 49.9494737,35.8500568 L49.6084211,36.4471023 C49.1515789,37.1934091 49.0778947,37.3279545 49.0063158,37.4625 L48.5810526,38.2424432 L45.56,39.0875568 C43.5789474,39.6846023 41.6189474,40.3510227 39.6842105,41.093125 L41.3978947,40.5486364 L39.7136842,41.0847159 L39.1831579,41.3264773 C38.4315789,41.5850568 38.3768421,41.6060795 38.3242105,41.6292045 L35.3326316,42.9242045 C34.9894737,42.8338068 34.6168421,42.8569318 34.2821053,43.0103977 L31.76,43.0103977 L31.6884211,42.735 L31.6105263,42.4322727 C31.6084211,42.4280682 31.6084211,42.4238636 31.6084211,42.4217614 C31.6063158,42.4175568 31.6063158,42.4154545 31.6063158,42.41125 C31.4842105,41.8667614 31.3915789,41.1309659 31.3157895,40.1933523 C31.0189474,37.0609659 30.7915789,32.0365341 29.9305263,28.4374432 C29.7684211,27.7605114 29.5705263,27.1067045 29.3326316,26.4886364 C29.2231579,26.1291477 29.08,25.7780682 28.7242105,25.1999432 C28.6568421,25.0107386 28.5663158,24.8530682 28.4652632,24.7101136 C28.4021053,24.4830682 28.2863158,24.3022727 28.1621053,24.1298864 C28.9136842,23.6947159 29.3810526,23.0913636 29.3810526,22.4291477 L29.3810526,22.1285227 C29.3810526,20.7956818 27.5115789,19.7130114 25.2126316,19.7130114 L16.1747368,19.7130114 C13.8757895,19.7130114 12.0042105,20.7956818 12.0042105,22.1285227 L12.0042105,22.4291477 C12.0042105,23.7619886 13.8757895,24.8446591 16.1747368,24.8446591 L18.3178947,24.8446591 C18.2336842,24.9203409 18.1494737,25.0023295 18.0652632,25.1494886 C17.6126316,25.5468182 17.1515789,26.1102273 16.6842105,26.8292045 C16.5473684,26.9469318 16.4526316,27.0856818 16.3578947,27.2286364 L16.1768421,27.2286364 C13.8778947,27.2286364 12.0063158,28.3113068 12.0063158,29.6420455 L12.0063158,29.9447727 C12.0063158,30.75625 12.7073684,31.4794318 13.7810526,31.9167045 C13.6842105,32.1185227 13.5894737,32.3245455 13.4989474,32.5726136 C13.4210526,32.745 13.3410526,32.9194886 13.2652632,33.1192045 C12.4863158,34.8241477 11.9263158,36.2179545 11.3894737,37.7210795 C11.1368421,38.3559659 10.8863158,39.0371023 10.6421053,39.7560795 C10.4231579,40.3236932 10.3410526,40.5570455 10.2610526,40.7946023 L10.0968421,41.2844318 C9.94105263,41.7448295 9.78315789,42.2094318 9.62947368,42.6803409 L9.45052632,42.6425 C6.23578947,41.6313068 3.90315789,38.6229545 3.90315789,35.0827273 L3.90315789,11.6045455 C3.90315789,7.23181818 7.46105263,3.67897727 11.84,3.67897727 L187.766316,3.67897727 C192.145263,3.67897727 195.705263,7.23181818 195.705263,11.6045455 L195.705263,11.6045455 Z M156.802105,16.2253409 L156.802105,35.3476136 C156.802105,38.3034091 159.206316,40.7105114 162.172632,40.7105114 L181.336842,40.7105114 C184.301053,40.7105114 186.707368,38.3034091 186.707368,35.3476136 L186.707368,16.2253409 C186.707368,13.2632386 184.301053,10.8624432 181.336842,10.8624432 L162.172632,10.8624432 C159.206316,10.8624432 156.802105,13.2632386 156.802105,16.2253409 L156.802105,16.2253409 Z M12,14.5477273 L12,14.8504545 C12,16.1832955 13.8715789,17.2638636 16.1705263,17.2638636 L25.2105263,17.2638636 C27.5094737,17.2638636 29.3768421,16.1832955 29.3768421,14.8504545 L29.3768421,14.5477273 C29.3768421,13.2169886 27.5094737,12.1343182 25.2105263,12.1343182 L16.1705263,12.1343182 C13.8715789,12.1343182 12,13.2169886 12,14.5477273 L12,14.5477273 Z M41.7705263,14.5477273 L41.7705263,14.8504545 C41.7705263,16.1832955 43.6421053,17.2638636 45.9410526,17.2638636 L54.9789474,17.2638636 C57.2778947,17.2638636 59.1473684,16.1832955 59.1473684,14.8504545 L59.1473684,14.5477273 C59.1473684,13.2169886 57.2778947,12.1343182 54.9789474,12.1343182 L45.9410526,12.1343182 C43.6421053,12.1343182 41.7705263,13.2169886 41.7705263,14.5477273 L41.7705263,14.5477273 Z M71.5410526,14.5477273 L71.5410526,14.8504545 C71.5410526,16.1832955 73.4126316,17.2638636 75.7115789,17.2638636 L84.7494737,17.2638636 C87.0484211,17.2638636 88.9178947,16.1832955 88.9178947,14.8504545 L88.9178947,14.5477273 C88.9178947,13.2169886 87.0484211,12.1343182 84.7494737,12.1343182 L75.7115789,12.1343182 C73.4126316,12.1343182 71.5410526,13.2169886 71.5410526,14.5477273 L71.5410526,14.5477273 Z M131.082105,14.5498295 L131.082105,14.8525568 C131.082105,16.1832955 132.951579,17.2659659 135.250526,17.2659659 L144.290526,17.2659659 C146.589474,17.2659659 148.461053,16.1832955 148.461053,14.8525568 L148.461053,14.5498295 C148.461053,13.2190909 146.589474,12.1364205 144.290526,12.1364205 L135.250526,12.1364205 C132.951579,12.1364205 131.082105,13.2190909 131.082105,14.5498295 L131.082105,14.5498295 Z M183.549474,16.2253409 L183.549474,35.3476136 C183.549474,36.5648295 182.555789,37.5571023 181.336842,37.5571023 L162.172632,37.5571023 C160.951579,37.5571023 159.96,36.5648295 159.96,35.3476136 L159.96,16.2253409 C159.96,15.0060227 160.951579,14.0158523 162.172632,14.0158523 L181.336842,14.0158523 C182.555789,14.0158523 183.549474,15.0060227 183.549474,16.2253409 L183.549474,16.2253409 Z M107.298947,15.8532386 C107.869474,15.8952841 108.195789,16.1349432 108.416842,16.3809091 C109.166316,17.2134091 109.654737,18.9667045 109.795789,21.5945455 C109.945263,24.3653409 109.701053,27.5145455 109.446316,30.4009659 C109.223158,32.7870455 108.991579,35.01125 109.008421,36.9474432 C109.012632,37.5844318 109.046316,38.271875 109.103158,38.9908523 C109.157895,39.6740909 109.646316,40.2438068 110.313684,40.399375 C114.231579,41.3222727 118.090526,42.4280682 121.8,43.7251705 C121.846316,43.7672159 121.909474,43.7819318 121.972632,43.7966477 C127.736842,44.9150568 136.090526,48.9661364 141.012632,52.1510795 C141.138947,52.4411932 141.351579,52.6913636 141.629474,52.8658523 C143.273684,53.8896591 144.825263,54.9555114 146.275789,56.055 C157.204211,64.3253409 164.698947,80.4035227 167.404211,95.205625 L168.265263,101.432557 L168.475789,107.394602 C168.816842,114.187045 169.263158,122.648693 167.385263,128.902955 L167.355789,129.016477 C165.378947,137.957443 162.938947,153.772841 156.385263,159.734886 L154.151579,161.118182 L152.926316,159.764318 C148.515789,154.088182 145.086316,145.069432 131.541053,144.859205 C115.642105,144.609034 111.488421,154.52125 107.052632,160.294091 L105.528421,161.992727 L104.071579,161.55125 C100.381053,158.860341 96.1663158,147.375625 93.7326316,141.878182 L92.7263158,139.803239 L92.6736842,139.698125 L91.2884211,137.19642 C87.6421053,131.865057 81.7873684,132.087898 65.4547368,136.248295 C54.7031579,138.987557 44.0673684,138.079375 34.7894737,134.574886 C34.5347368,134.478182 34.2589474,134.450852 33.9894737,134.490795 C18.5263158,136.874773 13.7326316,148.834602 16.7936842,158.889773 C18.9410526,165.945 27.5431579,170.786534 33.3873684,168.743125 C36.2042105,167.759261 37.7410526,166.054318 38.5031579,164.433466 C38.9347368,163.510568 39.0989474,162.675966 39.1326316,162.020057 L39.1347368,161.887614 L39.1178947,161.33892 C39.1031579,160.813352 38.8252632,160.331932 38.3810526,160.05233 L38.1347368,159.896761 L36.7852632,158.399943 C35.7073684,156.684489 35.5263158,154.464489 36.4989474,152.521989 C37.9810526,149.557784 41.5957895,148.355284 44.56,149.835284 C47.3263158,151.214375 49.1073684,153.566818 50.0863158,155.984432 C51.7789474,160.161648 51.4252632,165.196591 49.3852632,169.53358 C47.2673684,174.03875 43.2568421,178.01625 37.3557895,180.074375 C24.1284211,184.697273 9.18947368,175.178182 5.29052632,162.379545 C1.26736842,149.154148 6,134.831364 18.5873684,127.34517 C19.4947368,126.804886 19.6252632,125.54142 18.8463158,124.82875 C15.6547368,121.904489 12.9221053,118.591307 10.76,114.988011 C5.40421053,106.072273 2.77684211,95.3191477 4.35578947,84.5555114 L4.37052632,84.3684091 C4.62736842,74.3027273 8.17894737,57.4740341 12.3473684,44.5534659 C15.2315789,35.5809659 18.3010526,28.9588068 20.6252632,27.0142045 C21.2463158,26.4928409 21.7873684,26.1060227 22.2463158,25.8390341 C22.2315789,25.8243182 22.3557895,25.7486364 22.4505263,25.7276136 C22.8357895,25.4942614 23.1642105,25.3513068 23.4315789,25.2819318 C23.7473684,25.1515909 24.0189474,25.11375 24.2610526,25.1263636 C24.5284211,25.1305682 24.72,25.1936364 24.8357895,25.2651136 C24.8673684,25.2735227 24.8968421,25.2882386 24.9284211,25.3050568 C25.6084211,25.7128977 26.3157895,26.9090909 26.8589474,29.1711364 C27.2042105,30.6132955 27.4273684,32.213125 27.5957895,33.8339773 C27.9305263,37.2354545 27.9663158,40.5864773 28.5242105,43.1007955 C28.5978947,43.4455682 28.6968421,43.8134659 28.8610526,44.3642614 C28.8968421,44.4882955 28.9936842,44.7847159 29.0947368,45.0874432 C29.1010526,45.1084659 29.1094737,45.1315909 29.1221053,45.1673295 C29.1957895,45.3817614 29.2757895,45.6109091 29.3621053,45.8463636 C26.56,47.22125 23.6105263,48.4510795 20.9305263,50.2989773 C20.2126316,50.7930114 20.0315789,51.776875 20.5263158,52.4916477 C21.0210526,53.2085227 22.0063158,53.3893182 22.7221053,52.8952841 C25.4252632,51.0305682 28.6315789,49.7755114 31.7452632,48.1798864 C31.8694737,48.1483523 31.9915789,48.1 32.1115789,48.0369318 C33.44,47.3116477 34.7915789,46.6326136 36.1642105,46.0019318 C38.72,44.81625 41.3431579,43.7861364 41.4084211,43.8134659 C44.7578947,42.6403977 45.5010526,42.4049432 44.4042105,42.7602273 C47.2884211,41.8583523 48.3368421,41.5598295 49.3915789,41.2802273 C49.6315789,41.324375 49.8863158,41.3180682 50.1368421,41.2486932 C55.3389474,39.7497727 60.6547368,38.5661932 66.04,38.0238068 C66.2842105,38.1289205 66.5557895,38.1751705 66.84,38.1457386 C72.1621053,37.5802273 77.5031579,37.3153409 82.7557895,37.2291477 C85.8147368,37.1786932 88.9642105,37.2838068 92.1536842,37.5339773 C92.9515789,37.5970455 93.6715789,37.0525568 93.8252632,36.2663068 C95.6336842,27.0982955 99.7789474,18.754375 104.517895,16.51125 C105.088421,16.2379545 105.581053,16.0571591 105.989474,15.9646591 C106.056842,15.9247159 106.206316,15.8889773 106.322105,15.9015909 C106.621053,15.8175 106.875789,15.7964773 107.08,15.8238068 C107.210526,15.7985795 107.32,15.8090909 107.298947,15.8532386 L107.298947,15.8532386 Z M41.7747368,22.1285227 L41.7747368,22.4291477 C41.7747368,23.7619886 43.6463158,24.8446591 45.9452632,24.8446591 L54.9831579,24.8446591 C57.2821053,24.8446591 59.1515789,23.7619886 59.1515789,22.4291477 L59.1515789,22.1285227 C59.1515789,20.7956818 57.2821053,19.7130114 54.9831579,19.7130114 L45.9452632,19.7130114 C43.6463158,19.7130114 41.7747368,20.7956818 41.7747368,22.1285227 L41.7747368,22.1285227 Z M71.5452632,22.1285227 L71.5452632,22.4291477 C71.5452632,23.7619886 73.4168421,24.8446591 75.7157895,24.8446591 L84.7536842,24.8446591 C87.0526316,24.8446591 88.9221053,23.7619886 88.9221053,22.4291477 L88.9221053,22.1285227 C88.9221053,20.7956818 87.0526316,19.7130114 84.7536842,19.7130114 L75.7157895,19.7130114 C73.4168421,19.7130114 71.5452632,20.7956818 71.5452632,22.1285227 L71.5452632,22.1285227 Z M143.206316,25.6876705 C143.48,25.7780682 143.663158,25.9021023 143.745263,26.0135227 C143.831579,26.0723864 143.903158,26.1459659 143.966316,26.2258523 C144.406316,26.8376136 144.644211,28.0401136 144.467368,30.0330682 C144.2,32.9867614 143.178947,36.4428977 142.437895,39.3061932 C142.103158,40.5801705 141.829474,41.7280114 141.688421,42.7202841 C141.667368,42.8695455 141.650526,43.0061932 141.637895,43.1407386 C141.589474,43.5801136 141.543158,44.0131818 141.501053,44.4189205 C141.496842,44.4399432 141.494737,44.4630682 141.490526,44.515625 C141.336842,45.9640909 141.204211,47.2780114 141.098947,48.493125 C136.608421,45.8001136 130.366316,42.8085795 125.113684,41.3138636 C125.690526,40.0840341 126.328421,38.8773295 127.035789,37.7252841 C126.972632,37.7841477 127.153684,37.4772159 127.357895,37.1913068 C128.307368,35.5977841 129.376842,34.0925568 130.528421,32.7513068 C130.469474,32.7786364 130.663158,32.5473864 130.869474,32.3413636 C132.035789,30.9538636 133.288421,29.7366477 134.585263,28.7548864 C134.549474,28.7485795 134.692632,28.6371591 134.84,28.5446591 C136.212632,27.4893182 137.631579,26.6904545 139.058947,26.2048295 C139.823158,25.9420455 140.471579,25.7717614 141.008421,25.6813636 C141.008421,25.6603409 141.149474,25.6351136 141.246316,25.6477273 C141.701053,25.5636364 142.069474,25.5426136 142.36,25.5657386 C142.703158,25.5510227 142.972632,25.6014773 143.206316,25.6876705 L143.206316,25.6876705 Z M71.5473684,29.6420455 L71.5473684,29.9447727 C71.5473684,31.2755114 73.4189474,32.3581818 75.7178947,32.3581818 L84.7557895,32.3581818 C87.0547368,32.3581818 88.9263158,31.2755114 88.9263158,29.9447727 L88.9263158,29.6420455 C88.9263158,28.3113068 87.0547368,27.2286364 84.7557895,27.2286364 L75.7178947,27.2286364 C73.4189474,27.2286364 71.5473684,28.3113068 71.5473684,29.6420455 L71.5473684,29.6420455 Z M63.2926316,29.9552841 C64.1157895,31.056875 64.6042105,32.8942614 64.8989474,34.9734091 C60.8,35.4338068 56.7705263,36.236875 52.8315789,37.2438636 C52.4715789,37.7336932 52.8294737,37.1009091 53.24,36.5417045 C54.5747368,34.3448295 56.0821053,32.1815909 57.4905263,30.8361364 C57.6505263,30.57125 57.8947368,30.3820455 58.1389474,30.2601136 C58.1578947,30.2348864 58.2421053,30.1676136 58.32,30.1108523 C61.2484211,28.35125 62.48,28.8705114 63.2926316,29.9552841 L63.2926316,29.9552841 Z M144.547368,51.0452841 L144.749474,51.1840341 L144.547368,51.0452841 L144.547368,51.0452841 Z M155.202105,100.328864 L146.757895,103.383466 C145.938947,103.679886 145.513684,104.585966 145.810526,105.40375 C146.107368,106.221534 147.014737,106.646193 147.833684,106.349773 L156.277895,103.29517 C157.096842,102.99875 157.522105,102.09267 157.225263,101.274886 C156.928421,100.457102 156.021053,100.032443 155.202105,100.328864 L155.202105,100.328864 Z M102.149474,102.033807 C101.852632,102.851591 102.277895,103.75767 103.096842,104.054091 L111.541053,107.106591 C112.36,107.403011 113.267368,106.978352 113.564211,106.160568 C113.861053,105.342784 113.435789,104.436705 112.616842,104.140284 L104.172632,101.087784 C103.353684,100.791364 102.446316,101.216023 102.149474,102.033807 L102.149474,102.033807 Z M134.884211,105.193523 C133.122105,105.712784 131.414737,106.768125 130.202105,108.241818 L129.924211,108.609716 L129.823158,108.47517 C128.684211,107.08767 127.136842,106.086989 125.505263,105.590852 C122.136842,104.562841 118.149474,105.620284 116.275789,109.749148 C115.917895,110.541705 116.269474,111.477216 117.063158,111.836705 C117.856842,112.194091 118.793684,111.843011 119.153684,111.050455 C120.292632,108.536136 122.515789,107.97483 124.581053,108.605511 C126.492632,109.187841 128.086316,110.754034 128.454737,112.78483 L128.482105,112.986648 L128.48,113.089659 C128.482105,113.167443 128.484211,113.245227 128.488421,113.327216 C127.692632,113.484886 126.932632,113.716136 126.267368,113.989432 C125.389474,114.346818 124.492632,114.847159 123.922105,115.488352 C123.341053,116.137955 123.397895,117.134432 124.050526,117.712557 C124.701053,118.292784 125.698947,118.236023 126.277895,117.584318 C126.307368,117.552784 126.412632,117.45608 126.635789,117.31733 C126.848421,117.186989 127.126316,117.046136 127.461053,116.909489 C128.132632,116.634091 128.962105,116.409148 129.816842,116.306136 C130.677895,116.205227 131.496842,116.236761 132.178947,116.419659 C132.848421,116.600455 133.343158,116.913693 133.68,117.357273 C134.204211,118.053125 135.195789,118.191875 135.890526,117.666307 C136.587368,117.142841 136.726316,116.15267 136.2,115.45892 C135.353684,114.338409 134.193684,113.697216 133.004211,113.375568 C132.566316,113.257841 132.122105,113.180057 131.675789,113.138011 C131.671579,113.066534 131.665263,112.997159 131.661053,112.929886 L131.642105,112.801648 L131.648421,112.578807 C131.717895,111.72108 132.073684,110.93483 132.642105,110.243182 C133.416842,109.303466 134.564211,108.57608 135.781053,108.216591 C137.010526,107.852898 138.141053,107.909659 138.941053,108.292273 C139.661053,108.637045 140.305263,109.335 140.496842,110.751932 C140.614737,111.615966 141.410526,112.219318 142.273684,112.103693 C143.138947,111.985966 143.743158,111.191307 143.627368,110.329375 C143.303158,107.955909 142.069474,106.290909 140.303158,105.447898 C138.612632,104.640625 136.637895,104.676364 134.884211,105.193523 L134.884211,105.193523 Z M157.263158,106.160568 L148.370526,107.400909 C147.507368,107.520739 146.903158,108.3175 147.025263,109.179432 C147.145263,110.041364 147.943158,110.644716 148.806316,110.522784 L157.698947,109.282443 C158.562105,109.162614 159.166316,108.365852 159.044211,107.50392 C158.924211,106.641989 158.126316,106.038636 157.263158,106.160568 L157.263158,106.160568 Z M100.328421,108.260739 C100.206316,109.12267 100.810526,109.919432 101.673684,110.039261 L110.566316,111.279602 C111.429474,111.401534 112.227368,110.798182 112.347368,109.93625 C112.469474,109.074318 111.865263,108.277557 111.002105,108.157727 L102.109474,106.917386 C101.246316,106.795455 100.448421,107.398807 100.328421,108.260739 L100.328421,108.260739 Z M98.7578947,123.804943 C98.7578947,128.59392 102.166316,132.592443 106.690526,133.517443 C106.014737,133.578409 105.429474,134.072443 105.288421,134.770398 L104.225263,139.923068 C104.048421,140.776591 104.6,141.611193 105.452632,141.785682 C106.307368,141.962273 107.143158,141.411477 107.317895,140.560057 L108.381053,135.407386 C108.534737,134.663182 108.136842,133.935795 107.473684,133.645682 C107.869474,133.694034 108.275789,133.719261 108.690526,133.719261 C114.168421,133.719261 118.621053,129.277159 118.621053,123.804943 C118.621053,118.330625 114.168421,113.890625 108.690526,113.890625 C103.208421,113.890625 98.7578947,118.330625 98.7578947,123.804943 L98.7578947,123.804943 Z M141,123.804943 C141,129.277159 145.452632,133.719261 150.934737,133.719261 C151.162105,133.719261 151.389474,133.710852 151.612632,133.696136 C151.008421,134.01358 150.658947,134.705227 150.806316,135.409489 L151.867368,140.562159 C152.042105,141.41358 152.877895,141.964375 153.732632,141.787784 C154.585263,141.613295 155.136842,140.778693 154.96,139.92517 L153.898947,134.7725 C153.770526,134.154432 153.298947,133.696136 152.724211,133.557386 C157.349474,132.714375 160.867368,128.665398 160.867368,123.804943 C160.867368,118.330625 156.412632,113.890625 150.934737,113.890625 C145.452632,113.890625 141,118.330625 141,123.804943 L141,123.804943 Z M107.250526,118.988636 C107.250526,120.847045 108.764211,122.360682 110.629474,122.360682 C112.296842,122.360682 113.686316,121.145568 113.96,119.560455 C114.898947,120.718807 115.463158,122.196705 115.463158,123.804943 C115.463158,127.534375 112.427368,130.565852 108.690526,130.565852 C104.949474,130.565852 101.915789,127.534375 101.915789,123.804943 C101.915789,120.36142 104.494737,117.519148 107.831579,117.096591 C107.463158,117.636875 107.250526,118.286477 107.250526,118.988636 L107.250526,118.988636 Z M148.252632,118.988636 C148.252632,120.847045 149.768421,122.360682 151.631579,122.360682 C153.496842,122.360682 155.012632,120.847045 155.012632,118.988636 C155.012632,118.774205 154.991579,118.56608 154.953684,118.364261 C156.623158,119.596193 157.709474,121.574432 157.709474,123.804943 C157.709474,127.534375 154.671579,130.565852 150.934737,130.565852 C147.193684,130.565852 144.157895,127.534375 144.157895,123.804943 C144.157895,120.880682 146.018947,118.387386 148.625263,117.445568 C148.387368,117.908068 148.252632,118.431534 148.252632,118.988636 L148.252632,118.988636 Z M109.225263,135.794205 L109.983158,140.492784 C110.122105,141.350511 110.932632,141.937045 111.793684,141.798295 C112.652632,141.659545 113.24,140.85017 113.101053,139.990341 L112.343158,135.291761 C112.204211,134.434034 111.393684,133.8475 110.532632,133.98625 C109.673684,134.125 109.086316,134.934375 109.225263,135.794205 L109.225263,135.794205 Z M146.844211,135.293864 L146.086316,139.992443 C145.947368,140.852273 146.534737,141.661648 147.393684,141.800398 C148.254737,141.939148 149.065263,141.352614 149.204211,140.494886 L149.962105,135.796307 C150.101053,134.936477 149.513684,134.127102 148.654737,133.988352 C147.793684,133.849602 146.983158,134.436136 146.844211,135.293864 L146.844211,135.293864 Z"></path>
                    </g>
                </g>
            </g>
        </g>
    </g>
</svg>