<?xml version="1.0" encoding="UTF-8" standalone="no"?>
<svg width="242px" height="22px" viewBox="0 0 242 22" version="1.1" xmlns="http://www.w3.org/2000/svg" xmlns:xlink="http://www.w3.org/1999/xlink" xmlns:sketch="http://www.bohemiancoding.com/sketch/ns">
    <!-- Generator: Sketch 3.3.3 (12072) - http://www.bohemiancoding.com/sketch -->
    <title>c-logo</title>
    <desc>Created with Sketch.</desc>
    <defs></defs>
    <g id="C!-Logo-White" stroke="none" stroke-width="1" fill="none" fill-rule="evenodd" sketch:type="MSPage">
        <g id="c-logo" sketch:type="MSLayerGroup" fill="#FFFFFF">
            <g id="Group" sketch:type="MSShapeGroup">
                <path d="M10.528,21.008 C4.849,21.008 0,16.722 0,10.626 C0,4.531 4.82,0.277 10.231,0.277 C14.601,0.277 17.279,2.12 18.975,4.621 L14.9,7.384 C14.127,6.194 12.878,4.976 10.321,4.976 C7.346,4.976 5.534,7.444 5.534,10.626 C5.534,13.808 7.407,16.307 10.499,16.307 C13.115,16.307 14.395,15.118 15.258,13.512 L19.422,16.188 C17.43,19.549 14.634,21.008 10.528,21.008 L10.528,21.008 Z" id="Shape"></path>
                <path d="M18.886,10.626 C18.886,4.531 23.912,0.277 29.738,0.277 C35.569,0.277 40.596,4.531 40.596,10.626 C40.596,16.722 35.569,21.008 29.738,21.008 C23.913,21.008 18.886,16.722 18.886,10.626 L18.886,10.626 Z M35.064,10.626 C35.064,7.443 33.131,4.976 29.738,4.976 C26.349,4.976 24.417,7.444 24.417,10.626 C24.417,13.808 26.349,16.307 29.738,16.307 C33.131,16.307 35.064,13.809 35.064,10.626 L35.064,10.626 Z" id="Shape"></path>
                <path d="M47.021,10.655 L47.021,20.736 L41.933,20.736 L41.933,0.245 C41.933,0.069 42.021,-0.08 42.349,0.187 L55.049,10.655 L55.049,0.516 L60.136,0.516 L60.136,21.035 C60.136,21.272 60.045,21.362 59.719,21.095 L47.021,10.655 L47.021,10.655 Z" id="Shape"></path>
                <path d="M70.689,20.944 C70.602,21.123 70.423,21.123 70.334,20.944 L60.816,0.516 L66.586,0.516 L70.721,9.944 L74.735,0.516 L80.239,0.516 L70.689,20.944 L70.689,20.944 Z" id="Shape"></path>
                <path d="M80.922,0.516 L95.105,0.516 L95.105,5.066 L86.334,5.066 L86.334,8.397 L93.649,8.397 L93.649,12.709 L86.334,12.709 L86.334,16.188 L95.524,16.188 L95.524,20.737 L80.922,20.737 L80.922,0.516 L80.922,0.516 Z" id="Shape"></path>
                <path d="M102.36,20.736 L96.951,20.736 L96.951,0.516 L105.128,0.516 C110.274,0.516 113.128,3.549 113.128,7.681 C113.128,10.357 111.849,12.469 109.441,13.573 L113.633,20.737 L107.773,20.737 L104.205,14.403 L102.359,14.403 L102.359,20.736 L102.36,20.736 Z M104.862,10.272 C106.704,10.272 107.686,9.346 107.686,7.68 C107.686,6.018 106.704,5.093 104.862,5.093 L102.361,5.093 L102.361,10.272 L104.862,10.272 L104.862,10.272 Z" id="Shape"></path>
                <path d="M113.069,17.289 L116.995,14.344 C117.975,15.564 119.195,16.542 121.215,16.542 C122.822,16.542 123.774,16.068 123.774,14.937 C123.774,14.075 123.119,13.662 121.782,13.214 L119.404,12.411 C116.459,11.43 114.38,9.645 114.38,6.315 C114.38,2.327 117.679,0.277 121.277,0.277 C124.847,0.277 126.985,1.553 128.174,2.953 L125.082,6.193 C124.25,5.33 123.18,4.737 121.573,4.737 C120.265,4.737 119.61,5.33 119.61,6.135 C119.61,6.908 120.054,7.294 121.037,7.623 L123.714,8.513 C127.758,9.852 129.127,11.786 129.127,14.639 C129.127,18.359 126.808,21.034 121.454,21.034 C116.904,21.034 114.318,18.952 113.069,17.289 L113.069,17.289 Z" id="Shape"></path>
                <path d="M130.526,0.516 L135.939,0.516 L135.939,20.737 L130.526,20.737 L130.526,0.516 L130.526,0.516 Z" id="Shape"></path>
                <path d="M137.396,10.626 C137.396,4.531 142.422,0.277 148.25,0.277 C154.079,0.277 159.106,4.531 159.106,10.626 C159.106,16.722 154.079,21.008 148.25,21.008 C142.422,21.008 137.396,16.722 137.396,10.626 L137.396,10.626 Z M153.574,10.626 C153.574,7.443 151.641,4.976 148.25,4.976 C144.859,4.976 142.926,7.444 142.926,10.626 C142.926,13.808 144.859,16.307 148.25,16.307 C151.641,16.307 153.574,13.809 153.574,10.626 L153.574,10.626 Z" id="Shape"></path>
                <path d="M165.529,10.655 L165.529,20.736 L160.443,20.736 L160.443,0.245 C160.443,0.069 160.533,-0.08 160.859,0.187 L173.559,10.655 L173.559,0.516 L178.643,0.516 L178.643,21.035 C178.643,21.272 178.554,21.362 178.227,21.095 L165.529,10.655 L165.529,10.655 Z" id="Shape"></path>
                <path d="M181.082,0.516 L186.494,0.516 L186.494,20.737 L181.082,20.737 L181.082,0.516 L181.082,0.516 Z" id="Shape"></path>
                <path d="M187.297,17.289 L191.222,14.344 C192.205,15.564 193.424,16.542 195.445,16.542 C197.053,16.542 198.004,16.068 198.004,14.937 C198.004,14.075 197.35,13.662 196.013,13.214 L193.633,12.411 C190.689,11.43 188.608,9.645 188.608,6.315 C188.608,2.327 191.91,0.277 195.507,0.277 C199.076,0.277 201.218,1.553 202.407,2.953 L199.312,6.193 C198.481,5.33 197.409,4.737 195.804,4.737 C194.496,4.737 193.841,5.33 193.841,6.135 C193.841,6.908 194.288,7.294 195.269,7.623 L197.947,8.513 C201.989,9.852 203.357,11.786 203.357,14.639 C203.357,18.359 201.04,21.034 195.686,21.034 C191.134,21.034 188.547,18.952 187.297,17.289 L187.297,17.289 Z" id="Shape"></path>
                <path d="M208.176,5.065 L202.822,5.065 L202.822,0.515 L218.942,0.515 L218.942,5.065 L213.588,5.065 L213.588,20.736 L208.176,20.736 L208.176,5.065 L208.176,5.065 Z" id="Shape"></path>
                <path d="M228.935,18.3 L221.885,18.3 L220.871,20.737 L215.579,20.737 L225.427,0.156 C225.513,-0.051 225.691,-0.051 225.781,0.156 L235.595,20.737 L230.003,20.737 L228.935,18.3 L228.935,18.3 Z M223.549,14.374 L227.207,14.374 L225.365,10.092 L223.549,14.374 L223.549,14.374 Z" id="Shape"></path>
                <path d="M235.743,18.119 C235.743,16.394 237.14,15.207 238.716,15.207 C240.263,15.207 241.691,16.395 241.691,18.119 C241.691,19.848 240.263,21.034 238.716,21.034 C237.141,21.034 235.743,19.848 235.743,18.119 L235.743,18.119 Z M235.922,0.516 L241.512,0.516 L240.916,13.899 L236.517,13.899 L235.922,0.516 L235.922,0.516 Z" id="Shape"></path>
            </g>
        </g>
    </g>
</svg>