<svg xmlns="http://www.w3.org/2000/svg" viewBox="-233.5 348.1 59.5 66.8" enable-background="new -233.5 348.1 59.5 66.8"><g fill="#fff"><path d="M-184.8 396.4c2.2-8.7 13.9-12.9 10.1-30.6-3.7-17.6-24.5-19.4-35.3-16.7-11.1 2.9-20 14.7-17.1 24.6.2.8.1 1.6-.3 2.3-1.4 2.1-5 6.7-6 9.4-.4 1 .2 2 1.2 2.3.3.1 2.2.8 2.5.9 2.6.8 2.1 6.5 2.1 11.7 0 5.4 5.8 4.7 7.7 4.3 1.9-.4 6.2-.8 6.2 4.4 0 .7 0 1.2.1 1.7.1 1 .7 1.9 1.7 2.3 3.8 1.5 14.9 3.8 28.2-1 .8-.3 1.1-1.2.8-1.9-1.4-2.5-3.6-7.2-1.9-13.7zm-4.3-8.1c-3 1.6-5.3-.2-6.5-1.5-.7.3-1.4.5-2.1.5-1.2 0-2.4-.4-3.3-1.2 0 .1-4.1 1-4.8-1.8h.4c2.5-.1 4.9-1.4 7.1-4 .4-.4.3-1.1-.1-1.5-.4-.4-1.1-.3-1.5.1-1.8 2.1-3.7 3.2-5.6 3.3-.6 0-1.1-.1-1.5-.2-.1 0-.3-.1-.4-.1-.1 0-.3-.1-.4-.2-1-.5-1.7-1.1-1.7-1.1s-.1 0-.1-.1c-1.4-1.4-1.4-3.4-1.1-4.7-5 .6-7.3-1.3-8.4-3.1.4-.1.9-.2 1.3-.3 1.3-.5 2.4-1.5 3-3 .2-.5 0-1.1-.5-1.4-.5-.2-1.1 0-1.4.5-.4 1-1 1.6-1.8 1.9-.7.3-1.5.3-2.2.2-1.6-.8-2.7-2.4-2.7-4.3 0-2.5 1.9-4.6 4.4-4.8-.3-.5-.4-1-.3-1.6.2-1 1-1.9 2.1-2h.3c.3 1 1 2.3 2.3 2.9.4.2.7.2 1.1.2.8 0 1.7-.3 2.6-1 .5-.3.6-1 .2-1.5-.3-.5-1-.6-1.5-.2-.5.4-1.2.7-1.7.5-.6-.2-1-1.1-1.2-1.8.7-1.3 2.1-2.1 3.7-2.1.9 0 1.7.3 2.3.7.6-1.6 2.1-2.8 4-2.8 1 0 1.9.3 2.6.9.8-1.1 2-1.8 3.5-1.8 1.4 0 2.7.7 3.4 1.8.5-.3 1.2-.5 1.8-.5 1.5 0 2.9 1 3.4 2.3.5-.3 1.1-.5 1.7-.5 1.7 0 3.1 1.4 3.1 3.1v.2c.4-.2.9-.3 1.4-.1.8.2 1.5.8 1.7 1.7.1.5 0 1-.1 1.4h.1c1.5 0 2.7 1.2 2.7 2.7 0 .5-.2 1-.4 1.4-1.7-.3-3.9.2-5.6 2.6-.3.5-.2 1.1.3 1.4.2.1.4.2.6.2.3 0 .6-.2.9-.4 2.1-2.9 4.8-1.4 5.1-1.2h.1c.8 1.3 1.2 2.8 1.2 4.4 0 2.6-1.2 5-3 6.6.2.7.2 1.4 0 2.2-.4 1.4-1.5 2.5-2.9 2.8-.8.2-1.6.1-2.3-.1-.3 1.6-1.2 3.3-3.3 4.4zM-205.1 365.4c-1.7 1.8-2.2 4.6-1.4 7 .2.4.6.7 1 .7.1 0 .2 0 .4-.1.5-.2.8-.8.6-1.3-.6-1.6-.2-3.6 1-4.8.4-.4.4-1.1-.1-1.5-.5-.5-1.1-.5-1.5 0zM-185.5 361.8c-1.3-2.4-3.5-3.1-5.5-3.1-.2-.7-.5-1.8-1-2.7-.3-.5-.9-.6-1.4-.3-.5.3-.6.9-.3 1.4.4.6.6 1.3.7 1.9-.6.2-1.1.4-1.5.6-.5.3-.7.9-.5 1.4.3.5.9.7 1.4.5.2-.1 4.4-2.1 6.3 1.3.2.3.5.5.9.5.2 0 .3 0 .5-.1.4-.3.6-.9.4-1.4zM-195 373c.5 2 1.9 3.2 3.8 3.4h.1c.5 0 1-.4 1-1s-.4-1.1-1-1.1-1.1-.3-1.4-.7c-.6-.7-.7-1.8-.7-2.1v-.5c-.1-.4-.5-.7-1-.7-3.6 0-4.2-3.4-4.3-3.6-.1-.6-.6-.9-1.2-.8-.6.1-.9.6-.9 1.2.3 1.7 1.7 4.7 5.3 5.2.2.1.2.4.3.7zM-202.2 355.2c-.5.2-.8.8-.7 1.3.4 1.2.4 2.2-.1 2.9-1 1.5-3.4 1.8-3.5 1.8-.6.1-1 .6-.9 1.1.1.5.5.9 1 .9h.1c.1 0 3.5-.4 5-2.8.8-1.3 1-2.9.3-4.7-.1-.4-.7-.7-1.2-.5zM-189 383.9c-1.5.6-2.7.7-3.6.3-1.2-.6-1.6-2-1.7-2-.2-.6-.7-.9-1.3-.7-.6.2-.9.7-.7 1.3 0 .1.6 2.3 2.7 3.3.7.3 1.4.5 2.2.5 1 0 2-.2 3.1-.7.5-.2.8-.8.5-1.4-.1-.6-.7-.8-1.2-.6z"/></g></svg>