<svg xmlns="http://www.w3.org/2000/svg" viewBox="-269.3 372.4 30.7 32.3" enable-background="new -269.3 372.4 30.7 32.3" width="100" height="100"><g fill="#fff"><path d="M-262 372.4c-4 0-7.3 3.3-7.3 7.3s3.3 7.3 7.3 7.3 7.3-3.3 7.3-7.3-3.3-7.3-7.3-7.3zm0 12.9c-3.1 0-5.6-2.5-5.6-5.6 0-3.1 2.5-5.6 5.6-5.6 3.1 0 5.6 2.5 5.6 5.6 0 3.1-2.5 5.6-5.6 5.6zM-245.9 372.4c-4 0-7.3 3.3-7.3 7.3s3.3 7.3 7.3 7.3 7.3-3.3 7.3-7.3-3.3-7.3-7.3-7.3zm0 12.9c-3.1 0-5.6-2.5-5.6-5.6 0-3.1 2.5-5.6 5.6-5.6 3.1 0 5.6 2.5 5.6 5.6 0 3.1-2.5 5.6-5.6 5.6zM-262 390.2c-4 0-7.3 3.3-7.3 7.3s3.3 7.3 7.3 7.3 7.3-3.3 7.3-7.3-3.3-7.3-7.3-7.3zm0 12.9c-3.1 0-5.6-2.5-5.6-5.6 0-3.1 2.5-5.6 5.6-5.6 3.1 0 5.6 2.5 5.6 5.6 0 3.1-2.5 5.6-5.6 5.6zM-245.9 390.1c-4 0-7.3 3.3-7.3 7.3s3.3 7.3 7.3 7.3 7.3-3.3 7.3-7.3-3.3-7.3-7.3-7.3zm0 12.9c-3.1 0-5.6-2.5-5.6-5.6 0-3.1 2.5-5.6 5.6-5.6 3.1 0 5.6 2.5 5.6 5.6 0 3.1-2.5 5.6-5.6 5.6zM-259.9 379h-1.2v-1.2c0-.5-.4-.9-.9-.9s-.9.4-.9.9v1.2h-1.2c-.5 0-.9.4-.9.9s.4.9.9.9h1.2v1.2c0 .5.4.9.9.9s.9-.4.9-.9v-1.2h1.2c.5 0 .9-.4.9-.9s-.4-.9-.9-.9zM-243.8 379h-4.1c-.5 0-.9.4-.9.9s.4.9.9.9h4.1c.5 0 .9-.4.9-.9s-.4-.9-.9-.9zM-261.2 395.8l-2.9 2.9c-.4.4-.4.9 0 1.3s.9.4 1.3 0l2.9-2.9c.4-.4.4-.9 0-1.3s-.9-.4-1.3 0z"/><circle cx="-263.4" cy="396.1" r="1"/><circle cx="-260.6" cy="399.6" r="1"/><path d="M-243.8 395.8c-.4-.4-.9-.4-1.3 0l-.8.8-.8-.8c-.4-.4-.9-.4-1.3 0s-.4.9 0 1.3l.8.8-.8.8c-.4.4-.4.9 0 1.3s.9.4 1.3 0l.8-.8.8.8c.4.4.9.4 1.3 0s.4-.9 0-1.3l-.8-.8.8-.8c.4-.4.4-1 0-1.3z"/></g></svg>