<svg xmlns="http://www.w3.org/2000/svg" viewBox="0 0 233.2 194.5" enable-background="new 0 0 233.2 194.5" width="100" height="100"><path fill="#fff" d="M175 75h-1.1c-1.4-.4-2.8-1.4-3.5-2.5l-12-19.3c-1.8-2.8-.7-6.3 1.8-7.7s6.3-.7 7.7 1.8l9.1 14.4 14.1-9.5c2.5-1.8 6-1.1 7.7 1.4 1.8 2.5 1.1 6-1.4 7.7L178.8 74c-1.4.6-2.4 1-3.8 1zM82.2 94c-3.2 0-5.6-2.5-5.6-5.6 0-3.9-3.9-7.4-8.8-7.4S59 84.1 59 88.4c0 3.2-2.5 5.6-5.6 5.6-3.2 0-5.6-2.5-5.6-5.6 0-10.2 9.1-18.6 20-18.6s20 8.4 20 18.6c0 3.1-2.5 5.6-5.6 5.6zM53.3 118.2c-3.2 0-5.6-2.5-5.6-5.6V90.5c0-3.2 2.5-5.6 5.6-5.6 3.2 0 5.6 2.5 5.6 5.6v22.1c.4 3.2-2.4 5.6-5.6 5.6zM82.2 118.2c-3.2 0-5.6-2.5-5.6-5.6V90.1c0-3.2 2.5-5.6 5.6-5.6 3.2 0 5.6 2.5 5.6 5.6v22.5c0 3.2-2.5 5.6-5.6 5.6zM76.5 104.2H59.3c-3.2 0-5.6-2.5-5.6-5.6 0-3.2 2.5-5.6 5.6-5.6h17.2c3.2 0 5.6 2.5 5.6 5.6.1 3.1-2.4 5.6-5.6 5.6zM180.2 124.6h-26.4c-3.2 0-5.6-2.5-5.6-5.6 0-3.2 2.5-5.6 5.6-5.6h26.4c3.2 0 5.6 2.5 5.6 5.6.1 3.1-2.4 5.6-5.6 5.6zM166.5 142.9c-3.2 0-5.6-2.5-5.6-5.6v-15.5c0-3.2 2.5-5.6 5.6-5.6s5.6 2.5 5.6 5.6v15.5c.1 3.1-2.4 5.6-5.6 5.6zM179.2 162.2h-23.6c-3.2 0-5.6-2.5-5.6-5.6v-17.2c0-3.2 2.5-5.6 5.6-5.6h23.6c3.2 0 5.6 2.5 5.6 5.6s-2.5 5.6-5.6 5.6h-17.9v6h17.9c3.2 0 5.6 2.5 5.6 5.6s-2.4 5.6-5.6 5.6zM176.4 66.6c-.7 0-1.1 0-1.8-.4-2.8-1.1-4.6-4.2-3.5-7 3.2-9.1 2.1-19-2.5-27.8s-12.3-15.5-21.8-18.3c-9.5-3.2-19.7-2.5-28.5 2.1-8.8 4.2-15.5 12-18.3 21.1-1.1 2.8-4.2 4.6-7 3.5s-4.6-4.2-3.5-7c3.9-12.3 12.7-22.1 24.3-27.8s24.6-6.7 37.3-2.5c12.3 3.9 22.5 12.7 28.5 23.9 6 11.6 7 24.6 3.2 36.6-1.9 2.2-4.3 3.6-6.4 3.6zM5.5 153.7c-1.4 0-2.8-.7-3.9-1.8-1.8-1.8-2.1-4.2-1.1-6.3l18.6-39c1.4-2.8 4.9-3.9 7.7-2.8s3.9 4.9 2.8 7.7l-12 24.6 19.7-9.1c2.8-1.4 6.3 0 7.7 2.8 1.4 2.8 0 6.3-2.8 7.4L8.3 153.4c-1 0-2.1.3-2.8.3zM66 143.9c-9.8 0-19.3-2.8-27.4-8.4-2.5-1.8-3.2-5.3-1.4-7.7 1.8-2.5 5.3-3.2 7.7-1.4 6.3 4.2 13.4 6.3 20.7 6.3 20.4 0 36.9-16.5 36.9-36.9S86.4 58.5 66 58.5 29.1 75 29.1 95.4c0 3.5.4 7 1.4 10.5.7 3.2-.7 6.3-3.9 7-3.2.7-6.3-.7-7-3.9-1.4-4.6-2.1-9.1-2.1-13.7 0-26.7 21.8-48.5 48.5-48.5s48.5 21.8 48.5 48.5-21.8 48.6-48.5 48.6zM227.7 194.5c-.7 0-1.8-.4-2.5-.7L191.1 178c-2.8-1.4-4.2-4.6-2.8-7.4 1.4-2.8 4.6-4.2 7.4-2.8l19.7 9.1-12-24.6c-1.4-2.8 0-6.3 2.8-7.7 2.8-1.4 6.3 0 7.7 2.8l18.6 39c1.1 2.1.7 4.9-1.1 6.3-.9 1.1-2.3 1.8-3.7 1.8zM167.2 184.7c-26.7 0-48.5-21.8-48.5-48.5s21.8-48.5 48.5-48.5 48.5 21.8 48.5 48.5c0 4.6-.7 9.1-2.1 13.7-.7 3.2-3.9 4.6-7 3.9-3.2-.7-4.6-3.9-3.9-7 1.1-3.5 1.4-7 1.4-10.5 0-20.4-16.5-36.9-36.9-36.9s-36.9 16.5-36.9 36.9 16.5 36.9 36.9 36.9c7.4 0 14.8-2.1 20.7-6.3 2.5-1.8 6-1.1 7.7 1.4 1.8 2.5 1.1 6-1.4 7.7-7.6 5.9-17.1 8.7-27 8.7z"/></svg>